<svg width="49" height="32" viewBox="0 0 49 32" fill="none" xmlns="http://www.w3.org/2000/svg">
<path d="M48.5788 4.92201H47.915L48.2735 5.25441L48.0535 5.27234L47.8336 5.29027L47.6131 5.30819L47.3936 5.32612L47.1736 5.34405L46.9527 5.36198L46.7332 5.37991L46.5132 5.39783L46.2927 5.41576L46.0732 5.43369L45.8532 5.45162L45.6328 5.46955L45.4128 5.48747L45.1933 5.5054L44.9733 5.52333L44.7528 5.54126L44.5329 5.55919L44.3129 5.57712L44.0924 5.59504L43.8729 5.61297L43.6529 5.6309L43.4325 5.64883L43.213 5.66676L42.993 5.68468L42.773 5.70261L42.553 5.72054L42.3321 5.73847L42.1126 5.7564L41.8926 5.77432L41.6726 5.79225L41.4526 5.81018L41.2326 5.82811L41.1789 5.1638L41.3988 5.14587L41.6188 5.12795L41.8388 5.11002L42.0588 5.09209L42.2793 5.07416L42.4992 5.05623L42.7192 5.0383L42.9392 5.02038L43.1592 5.00245L43.3796 4.98452L43.5991 4.96659L43.8191 4.94866L44.0396 4.93074L44.2591 4.91281L44.4791 4.89488L44.7 4.87695L44.9195 4.85902L45.1395 4.8411L45.36 4.82317L45.5799 4.80524L45.7994 4.78731L46.0194 4.76938L46.2399 4.75146L46.4594 4.73353L46.6794 4.7156L46.8998 4.69767L47.1198 4.67974L47.3398 4.66182L47.5603 4.64389L47.7798 4.62596L47.9998 4.60803L48.2197 4.5901L48.5783 4.9225L48.5788 4.92201ZM48.2202 4.58962L48.5788 4.56055V4.92201L48.2202 4.58962ZM48.1534 28.132L48.3409 27.4925L47.9154 27.8122V27.0966V26.3814V25.6657V24.9501V24.2349V23.5192V22.804V22.0884V21.3727V20.6575V19.9418V19.2262V18.511V17.7953V17.0801V16.3645V15.6488V14.9336V14.2179V13.5023V12.7871V12.0714V11.3562V10.6406V9.92491V9.20972V8.49406V7.77839V7.0632V6.34754V5.63235V4.91668H48.5793V5.63235V6.34754V7.0632V7.77839V8.49406V9.20972V9.92491V10.6406V11.3562V12.0714V12.7871V13.5023V14.2179V14.9336V15.6488V16.3645V17.0801V17.7953V18.511V19.2262V19.9418V20.6575V21.3727V22.0884V22.804V23.5192V24.2349V24.9501V25.6657V26.3814V27.0966V27.8122L48.1538 28.132H48.1534ZM48.5788 27.8122V28.258L48.1534 28.132L48.5788 27.8122ZM24.875 30.641H25.5388L25.0751 30.3348L25.7239 30.0552L26.3742 29.7785L27.0264 29.5067L27.681 29.2397L28.3385 28.9795L28.9989 28.7261L29.6628 28.4799L30.3305 28.2435L31.0025 28.0158L31.6789 27.7987L32.3607 27.5932L33.0473 27.3999L33.7392 27.2201L34.4369 27.0544L35.141 26.9037L35.8518 26.769L36.5689 26.6513L37.2933 26.551L38.0245 26.4691L38.7639 26.4066L39.5111 26.3644L40.267 26.3431L41.0306 26.3441L41.8034 26.3683L42.586 26.4158L43.3772 26.489L44.1787 26.5873L44.9898 26.7119L45.8111 26.864L46.6435 27.0443L47.4861 27.2531L48.3404 27.4925L48.1529 28.132L47.3175 27.898L46.4938 27.6935L45.6812 27.5176L44.8798 27.3689L44.0885 27.2473L43.3075 27.1513L42.5361 27.0806L41.7739 27.0336L41.0204 27.0103L40.2757 27.0094L39.5397 27.0297L38.8104 27.0709L38.0899 27.132L37.3762 27.2119L36.6687 27.3103L35.9676 27.4261L35.2728 27.5579L34.5838 27.7056L33.8996 27.868L33.2203 28.0448L32.5458 28.2343L31.8761 28.4363L31.2104 28.6495L30.5475 28.8739L29.8886 29.1074L29.232 29.3507L28.5788 29.6012L27.9271 29.8594L27.2778 30.124L26.6305 30.3944L25.9841 30.6686L25.3392 30.9477L24.8755 30.6415L24.875 30.641ZM25.3387 30.9472L24.875 31.1488V30.641L25.3387 30.9472ZM25.1439 8.28231L25.2704 8.93693L25.5393 8.60986V9.2984V9.98644V10.675V11.3635V12.0516V12.7401V13.4281V14.1167V14.8052V15.4933V16.1818V16.8703V17.5584V18.2469V18.935V19.6235V20.312V21.0001V21.6886V22.3767V23.0652V23.7537V24.4418V25.1303V25.8188V26.5069V27.1954V27.8835V28.572V29.2605V29.9486V30.6371H24.8755V29.9486V29.2605V28.572V27.8835V27.1954V26.5069V25.8188V25.1303V24.4418V23.7537V23.0652V22.3767V21.6886V21.0001V20.312V19.6235V18.935V18.2469V17.5584V16.8703V16.1818V15.4933V14.8052V14.1167V13.4281V12.7401V12.0516V11.3635V10.675V9.98644V9.2984V8.60986L25.1444 8.2828L25.1439 8.28231ZM24.875 8.60938V8.33416L25.1439 8.28183L24.875 8.60889V8.60938ZM41.1798 5.16186L41.2336 5.82617L41.27 5.82132L40.7699 5.91872L40.2699 6.01563L39.7698 6.11302L39.2698 6.20993L38.7697 6.30732L38.2702 6.40423L37.7701 6.50162L37.2701 6.59853L36.77 6.69592L36.27 6.79283L35.7699 6.89022L35.2699 6.98713L34.7698 7.08452L34.2698 7.18192L33.7697 7.27883L33.2702 7.37622L32.7701 7.47313L32.2701 7.57052L31.77 7.66743L31.27 7.76482L30.7699 7.86173L30.2699 7.95912L29.7698 8.05651L29.2698 8.15342L28.7697 8.25082L28.2697 8.34772L27.7701 8.44512L27.2701 8.54251L26.77 8.63942L26.27 8.73681L25.7699 8.83372L25.2699 8.93111L25.1434 8.2765L25.6435 8.1791L26.1435 8.0822L26.6436 7.9848L27.1436 7.88789L27.6437 7.7905L28.1432 7.69311L28.6433 7.5962L29.1433 7.49881L29.6434 7.4019L30.1434 7.30451L30.6435 7.20711L31.1435 7.1102L31.6436 7.01281L32.1436 6.9159L32.6437 6.81851L33.1437 6.7216L33.6433 6.62421L34.1433 6.5273L34.6434 6.42991L35.1434 6.33252L35.6435 6.23561L36.1435 6.13821L36.6435 6.04131L37.1436 5.94391L37.6436 5.847L38.1437 5.74961L38.6433 5.6527L39.1433 5.55531L39.6433 5.4584L40.1434 5.36101L40.6434 5.2641L41.1435 5.16671L41.1798 5.16186ZM41.1435 5.16671L41.1609 5.16332L41.1798 5.16186L41.1435 5.16671Z" fill="black"/>
<path d="M44.6299 25.7195V0H45.2937V25.7195H44.6299Z" fill="black"/>
<path fill-rule="evenodd" clip-rule="evenodd" d="M43.1268 0.441982C43.1268 8.45969 43.1268 16.4779 43.1268 24.4961C36.4339 24.1094 30.4444 25.6488 25.207 29.2422C25.207 21.1353 25.207 13.0289 25.207 4.92205C28.5615 1.51282 34.4773 -0.0217239 43.1268 0.441982Z" fill="white" stroke="black" stroke-width="0.666729" stroke-miterlimit="22.9256"/>
<path d="M0.000484542 4.92201L0.359045 4.58962L0.579027 4.60755L0.799009 4.62548L1.01851 4.6434L1.23897 4.66133L1.45895 4.67926L1.67894 4.69719L1.8994 4.71512L2.11939 4.73304L2.33888 4.75097L2.55935 4.7689L2.77933 4.78683L2.99883 4.80476L3.21881 4.82268L3.43928 4.84061L3.65926 4.85854L3.87924 4.87647L4.09971 4.8944L4.31969 4.91232L4.53919 4.93025L4.75965 4.94818L4.97963 4.96611L5.19913 4.98404L5.4196 5.00196L5.63958 5.01989L5.85956 5.03782L6.07954 5.05575L6.29953 5.07368L6.51999 5.0916L6.73997 5.10953L6.95996 5.12746L7.17994 5.14539L7.39992 5.16332L7.34614 5.82762L7.12615 5.8097L6.90617 5.79177L6.68619 5.77384L6.46621 5.75591L6.24671 5.73798L6.02576 5.72006L5.80578 5.70213L5.5858 5.6842L5.36581 5.66627L5.14632 5.64834L4.92585 5.63041L4.70587 5.61249L4.48637 5.59456L4.2659 5.57663L4.04592 5.5587L3.82643 5.54077L3.60547 5.52285L3.38549 5.50492L3.166 5.48699L2.94601 5.46906L2.72555 5.45113L2.50556 5.43321L2.28607 5.41528L2.0656 5.39735L1.84562 5.37942L1.62612 5.36149L1.40517 5.34357L1.18519 5.32564L0.965692 5.30771L0.745225 5.28978L0.525243 5.27185L0.305261 5.25393L0.663822 4.92153H0L0.000484542 4.92201ZM0.000484542 4.92201V4.56055L0.359045 4.58962L0.000484542 4.92201ZM0.425912 28.132L0.000484542 27.8122V27.0966V26.3814V25.6657V24.9501V24.2349V23.5192V22.804V22.0884V21.3727V20.6575V19.9418V19.2262V18.511V17.7953V17.0801V16.3645V15.6488V14.9336V14.2179V13.5023V12.7871V12.0714V11.3562V10.6406V9.92491V9.20972V8.49406V7.77839V7.0632V6.34754V5.63235V4.91668H0.664307V5.63235V6.34754V7.0632V7.77839V8.49406V9.20972V9.92491V10.6406V11.3562V12.0714V12.7871V13.5023V14.2179V14.9336V15.6488V16.3645V17.0801V17.7953V18.511V19.2262V19.9418V20.6575V21.3727V22.0884V22.804V23.5192V24.2349V24.9501V25.6657V26.3814V27.0966V27.8122L0.238879 27.4925L0.426397 28.132H0.425912ZM0.425912 28.132L0.000484542 28.258V27.8122L0.425912 28.132ZM23.7038 30.6415L23.2401 30.9477L22.5951 30.6686L21.9488 30.3944L21.3014 30.124L20.6521 29.8594L20.0004 29.6012L19.3473 29.3507L18.6907 29.1074L18.0317 28.8739L17.3689 28.6495L16.7031 28.4363L16.0335 28.2343L15.359 28.0448L14.6797 27.868L13.9955 27.7056L13.3065 27.5579L12.6117 27.4261L11.9105 27.3103L11.2031 27.2119L10.4894 27.132L9.76884 27.0709L9.03961 27.0297L8.30359 27.0094L7.55885 27.0103L6.80539 27.0336L6.0432 27.0806L5.27181 27.1513L4.49073 27.2473L3.69948 27.3689L2.89804 27.5176L2.08547 27.6935L1.26175 27.898L0.426397 28.132L0.238879 27.4925L1.09313 27.2531L1.93574 27.0443L2.76819 26.864L3.58948 26.7119L4.40061 26.5873L5.20204 26.489L5.9933 26.4158L6.77583 26.3683L7.54867 26.3441L8.31231 26.3431L9.0682 26.3644L9.81536 26.4066L10.5548 26.4691L11.2859 26.551L12.0103 26.6513L12.7275 26.769L13.4383 26.9037L14.1423 27.0544L14.8401 27.2201L15.532 27.3999L16.2186 27.5932L16.9003 27.7987L17.5767 28.0158L18.2488 28.2435L18.9165 28.4799L19.5803 28.7261L20.2408 28.9795L20.8983 29.2397L21.5529 29.5067L22.2051 29.7785L22.8553 30.0552L23.5041 30.3348L23.0404 30.641H23.7043L23.7038 30.6415ZM23.7038 30.6415V31.1493L23.2401 30.9477L23.7038 30.6415ZM23.4349 8.2828L23.7038 8.60986V9.2984V9.98644V10.675V11.3635V12.0516V12.7401V13.4281V14.1167V14.8052V15.4933V16.1818V16.8703V17.5584V18.2469V18.935V19.6235V20.312V21.0001V21.6886V22.3767V23.0652V23.7537V24.4418V25.1303V25.8188V26.5069V27.1954V27.8835V28.572V29.2605V29.9486V30.6371H23.04V29.9486V29.2605V28.572V27.8835V27.1954V26.5069V25.8188V25.1303V24.4418V23.7537V23.0652V22.3767V21.6886V21.0001V20.312V19.6235V18.935V18.2469V17.5584V16.8703V16.1818V15.4933V14.8052V14.1167V13.4281V12.7401V12.0516V11.3635V10.675V9.98644V9.2984V8.60986L23.3089 8.93693L23.4353 8.28231L23.4349 8.2828ZM23.4349 8.2828L23.7038 8.33513V8.61035L23.4349 8.28328V8.2828ZM7.39895 5.16283L7.43529 5.16768L7.93534 5.26507L8.43539 5.36198L8.93543 5.45937L9.43548 5.55628L9.93553 5.65367L10.4351 5.75058L10.9351 5.84797L11.4352 5.94488L11.9352 6.04228L12.4353 6.13918L12.9353 6.23658L13.4354 6.33348L13.9354 6.43088L14.4355 6.52827L14.9355 6.62518L15.4356 6.72257L15.9351 6.81948L16.4352 6.91687L16.9352 7.01378L17.4353 7.11117L17.9353 7.20808L18.4354 7.30547L18.9354 7.40287L19.4355 7.49978L19.9355 7.59717L20.4355 7.69408L20.9351 7.79147L21.4352 7.88886L21.9352 7.98577L22.4352 8.08316L22.9353 8.18007L23.4353 8.27747L23.3089 8.93208L22.8088 8.83469L22.3088 8.73778L21.8087 8.64039L21.3087 8.54348L20.8086 8.44609L20.3091 8.34869L19.809 8.25178L19.309 8.15439L18.8089 8.05748L18.3089 7.96009L17.8088 7.8627L17.3088 7.76579L16.8088 7.6684L16.3087 7.57149L15.8087 7.4741L15.3091 7.37719L14.809 7.27979L14.309 7.18289L13.809 7.08549L13.3089 6.9881L12.8089 6.89119L12.3088 6.7938L11.8088 6.69689L11.3087 6.5995L10.8087 6.50259L10.3086 6.4052L9.80906 6.30829L9.30901 6.2109L8.80897 6.11399L8.30892 6.01659L7.80887 5.91969L7.30883 5.82229L7.34517 5.82714L7.39895 5.16283ZM7.39895 5.16283L7.41785 5.16429L7.43529 5.16768L7.39895 5.16283Z" fill="black"/>
<path d="M3.94898 25.7195H3.28516V0H3.94898V25.7195Z" fill="black"/>
<path fill-rule="evenodd" clip-rule="evenodd" d="M5.45264 0.441982C5.45264 8.45969 5.45264 16.4779 5.45264 24.4961C12.1456 24.1094 18.135 25.6488 23.3724 29.2422C23.3724 21.1353 23.3724 13.0289 23.3724 4.92205C20.018 1.51282 14.1022 -0.0217239 5.45264 0.441982Z" fill="#FFCC00" stroke="black" stroke-width="0.666729" stroke-miterlimit="22.9256"/>
</svg>
