<svg width="86" height="83" viewBox="0 0 86 83" fill="none" xmlns="http://www.w3.org/2000/svg">
<path d="M17.6446 55H9.35545C7.50228 55 6 56.4732 6 58.2905V69.7095C6 71.5268 7.50228 73 9.35545 73H17.6446C19.4977 73 21 71.5268 21 69.7095V58.2905C21 56.4732 19.4977 55 17.6446 55Z" fill="#CFCFCF"/>
<path d="M37.6446 40H29.3554C27.5023 40 26 42.7008 26 46.0325V66.9675C26 70.2992 27.5023 73 29.3554 73H37.6446C39.4977 73 41 70.2992 41 66.9675V46.0325C41 42.7008 39.4977 40 37.6446 40Z" fill="#E6E6E6"/>
<path d="M56.6445 27H48.3555C46.5023 27 45 30.7647 45 35.4087V64.5913C45 69.2353 46.5023 73 48.3555 73H56.6445C58.4977 73 60 69.2353 60 64.5913V35.4087C60 30.7647 58.4977 27 56.6445 27Z" fill="#CFCFCF"/>
<path fill-rule="evenodd" clip-rule="evenodd" d="M79.6086 19.1285V69.6052C79.6086 71.4724 78.0768 73 76.2049 73H67.7957C65.9238 73 64.392 71.4724 64.392 69.6052V19.1285H59.8985C59.1565 19.1285 58.5213 18.7317 58.1968 18.0662C57.8724 17.4003 57.9525 16.6574 58.4114 16.0753L64.003 8.98112L70.5132 0.720759C70.8838 0.249772 71.4003 0 72.0003 0C72.6004 0 73.1165 0.250152 73.4875 0.720759L79.9972 8.98112L85.5893 16.0753C86.0473 16.6574 86.1275 17.4003 85.8034 18.0662C85.4789 18.7317 84.8438 19.1285 84.1021 19.1285H79.6086Z" fill="#FFC100"/>
<path d="M86 82.1052L86 79.8948C86 79.4006 78.9615 79 70.279 79H15.721C7.03853 79 0 79.4006 0 79.8948L0 82.1052C0 82.5994 7.03853 83 15.721 83H70.279C78.9615 83 86 82.5994 86 82.1052Z" fill="#CFCFCF"/>
</svg>
