<svg width="80" height="89" viewBox="0 0 80 89" fill="none" xmlns="http://www.w3.org/2000/svg">
<path fill-rule="evenodd" clip-rule="evenodd" d="M15.1742 7.00632C27.8405 7.00817 53.0115 7.00818 65.5653 7.00818C78.1192 7.00818 78.055 7.00818 77.9908 8.61982C77.9263 10.2315 77.8621 13.4551 77.252 16.4265C76.6424 19.3971 75.4864 22.1146 72.3402 25.5601C69.1937 29.0049 64.0565 33.1762 60.0431 36.0208C56.0298 38.8651 53.1403 40.3823 46.5504 40.8591C39.9605 41.3358 29.6699 40.7721 21.7074 36.5057C13.7449 32.2394 8.11087 24.2692 5.1976 19.2102C2.28396 14.1504 2.09144 12.0018 2.02727 10.4533C1.96271 8.90447 2.02689 7.95614 2.07446 7.48048C2.1224 7.00409 2.15485 7 2.25112 7C2.34776 7 2.50822 7.00409 15.1742 7.00632Z" stroke="#CFCFCF" stroke-width="2" stroke-miterlimit="22.9256"/>
<path d="M56.0773 66H24.9228C23.8609 66 23 66.8953 23 67.9997V75.0003C23 76.1047 23.8609 77 24.9228 77H56.0773C57.1392 77 58 76.1047 58 75.0003V67.9997C58 66.8953 57.1392 66 56.0773 66Z" fill="#CFCFCF"/>
<path d="M64.0883 77H16.9118C15.3036 77 14 77.8953 14 78.9997V86.0003C14 87.1047 15.3036 88 16.9118 88H64.0883C65.6964 88 67 87.1047 67 86.0003V78.9997C67 77.8953 65.6964 77 64.0883 77Z" fill="#CFCFCF"/>
<path fill-rule="evenodd" clip-rule="evenodd" d="M64.9996 20.3071C64.9996 39.4672 53.8064 55 39.9998 55C26.1925 55 15 39.4675 15 20.3071C15 13.7355 15 7.16394 15 3.79715C15 0.429972 15 0.266419 23.3333 0.169514C31.6665 0.0714592 48.3331 0.038521 56.6663 0.00634682C65 -0.0262103 65 -0.0583863 65 3.32488C65 6.70814 65 13.508 65 20.3075L64.9996 20.3071Z" fill="#E6E6E6"/>
<path fill-rule="evenodd" clip-rule="evenodd" d="M28.4813 65.8158C29.1113 65.6313 30.44 65.2626 31.7646 64.3461C33.0891 63.4297 34.4102 61.9647 35.161 60.381C35.9122 58.7966 36.0932 57.0943 36.1907 56.1763C36.2879 55.2584 36.3023 55.1249 36.6505 55.1072C36.9983 55.0894 37.6813 55.1868 38.2992 55.2475C38.9175 55.3083 39.4714 55.3326 40.0001 55.3449C40.5292 55.3568 41.0336 55.3568 41.6747 55.2917C42.3162 55.2262 43.0953 55.0949 43.4922 55.0279C43.8895 54.961 43.9048 54.9577 43.9851 55.69C44.0655 56.422 44.2103 57.8888 44.3962 58.984C44.5821 60.0792 44.8091 60.8018 45.6354 61.702C46.4616 62.6022 47.8867 63.6789 49.0772 64.425C50.268 65.1707 51.2238 65.585 51.7419 65.793C52.2607 66 52.3414 66 48.5831 66C44.8251 66 37.2273 66 33.1554 66C29.0835 66 28.5369 66 28.2287 66C27.9209 66 27.8516 66 28.4813 65.8158Z" stroke="#CFCFCF" stroke-width="2" stroke-miterlimit="22.9256"/>
<path fill-rule="evenodd" clip-rule="evenodd" d="M36.5738 15.5376C37.2774 13.9065 38.4051 11.455 39.1744 10.1042C39.9437 8.75384 40.3544 8.50368 41.3601 10.1352C42.3659 11.7668 43.9662 15.28 44.8485 17.0358C45.7305 18.7924 45.8939 18.7924 47.586 18.8952C49.2781 18.9983 52.4993 19.203 54.3055 19.4304C56.1122 19.6586 56.5048 19.9084 55.3356 21.3748C54.1664 22.8417 51.4362 25.5248 50.0298 26.8658C48.6241 28.2072 48.5418 28.2072 48.869 30.0089C49.1962 31.8106 49.9321 35.4136 50.1282 37.2902C50.3247 39.1668 49.9809 39.3166 48.4607 38.6104C46.9405 37.9046 44.2422 36.3417 42.6128 35.4658C40.9837 34.5898 40.4224 34.3996 38.9106 35.0807C37.3981 35.7618 34.9344 37.3145 33.4653 38.1403C31.9966 38.9668 31.5221 39.0664 31.4814 37.2898C31.4402 35.5136 31.8328 31.86 31.972 29.9336C32.1112 28.008 31.9966 27.81 30.7616 26.6184C29.5274 25.4272 27.1729 23.2428 25.9384 21.9422C24.7042 20.642 24.59 20.2252 26.1837 19.8472C27.7777 19.4696 31.0804 19.1308 32.887 18.9614C34.6937 18.792 35.0044 18.792 35.2989 18.3858C35.593 17.98 35.8714 17.168 36.5738 15.5368V15.5376Z" fill="#FFC100" stroke="white" stroke-miterlimit="22.9256"/>
</svg>
