<svg width="48" height="48" viewBox="0 0 48 48" fill="none" xmlns="http://www.w3.org/2000/svg">
<path d="M34.6034 1H3.29084C2.02564 1 1 2.02564 1 3.29084V3.29142C1 4.55661 2.02564 5.58226 3.29084 5.58226H34.6034C35.8686 5.58226 36.8943 4.55661 36.8943 3.29142V3.29084C36.8943 2.02564 35.8686 1 34.6034 1Z" stroke="black" stroke-width="0.666729" stroke-miterlimit="22.9256"/>
<path fill-rule="evenodd" clip-rule="evenodd" d="M3.56273 5.58221H34.333C34.9019 5.58221 35.3674 6.04651 35.3674 6.61662V28.9873C35.3674 29.5574 34.9019 30.0217 34.333 30.0217H3.56273C2.99377 30.0217 2.52832 29.5574 2.52832 28.9873V6.61662C2.52832 6.04651 2.99377 5.58221 3.56273 5.58221Z" fill="white"/>
<path d="M34.3327 5.97599H3.56245V5.18789H34.3327V5.97599ZM35.7649 6.61606H34.9693L34.9681 6.58252L34.9658 6.55072L34.9612 6.51776L34.956 6.48654L34.9491 6.45532L34.9398 6.42467L34.93 6.3946L34.9184 6.36512L34.9063 6.33852L34.8918 6.31019L34.8762 6.28301L34.8594 6.25757L34.8409 6.23155L34.823 6.20842L34.8022 6.1853L34.7814 6.16275L34.7577 6.14135L34.734 6.11996L34.7108 6.10203L34.686 6.08469L34.6594 6.06792L34.6328 6.05231L34.6062 6.03901L34.5755 6.02513L34.5478 6.01357L34.5189 6.00432L34.4905 5.99564L34.4587 5.98871L34.4269 5.98292L34.3969 5.97945L34.3639 5.97656L34.3315 5.97541V5.18732L34.4055 5.18905L34.4772 5.19426L34.5501 5.20351L34.6206 5.2168L34.6894 5.23242L34.7582 5.25208L34.8259 5.2752L34.8924 5.3018L34.9531 5.32955L35.0155 5.36136L35.0757 5.39605L35.1329 5.43247L35.1896 5.47237L35.2451 5.51574L35.296 5.56026L35.3445 5.60651L35.3925 5.65624L35.4376 5.70828L35.481 5.76379L35.5203 5.81871L35.5579 5.87711L35.592 5.93667L35.6238 5.99738L35.6533 6.06214L35.6787 6.12747L35.7013 6.19281L35.7204 6.26046L35.7366 6.32927L35.7493 6.39923L35.7585 6.46977L35.7643 6.54262L35.7661 6.61548L35.7649 6.61606ZM34.9693 28.9867V6.61606H35.7649V28.9867H34.9693ZM34.3327 30.4149V29.6268L34.3651 29.6256L34.398 29.6228L34.4281 29.6193L34.4599 29.6135L34.4917 29.6066L34.52 29.5979L34.5489 29.5886L34.5767 29.5771L34.6073 29.5632L34.6339 29.5499L34.6605 29.5343L34.6871 29.5175L34.712 29.5002L34.7351 29.4823L34.7582 29.462L34.7825 29.4389L34.8039 29.4158L34.8236 29.3938L34.8415 29.3707L34.86 29.3446L34.8768 29.3192L34.8924 29.292L34.9068 29.2637L34.919 29.2371L34.9305 29.2076L34.9404 29.1775L34.9496 29.1469L34.9566 29.1157L34.9618 29.0844L34.9664 29.0515L34.9687 29.0197L34.9699 28.9862H35.7655L35.7637 29.059L35.758 29.1319L35.7487 29.2024L35.736 29.2724L35.7198 29.3412L35.7007 29.4088L35.6782 29.4742L35.6527 29.5395L35.6232 29.6043L35.5914 29.665L35.5573 29.7245L35.5197 29.7829L35.4804 29.8379L35.437 29.8934L35.3908 29.946L35.344 29.994L35.296 30.0396L35.2439 30.0853L35.1884 30.1287L35.1318 30.1686L35.0745 30.205L35.0144 30.2397L34.9519 30.2715L34.8912 30.2993L34.8247 30.3259L34.7571 30.349L34.6883 30.3686L34.6195 30.3843L34.5489 30.3976L34.4761 30.4068L34.4044 30.412L34.3304 30.4137L34.3327 30.4149ZM3.56245 29.6268H34.3327V30.4149H3.56245V29.6268ZM2.13024 28.9867H2.92585L2.927 29.0203L2.92932 29.0521L2.93395 29.085L2.93915 29.1163L2.94609 29.1475L2.95534 29.1781L2.96517 29.2082L2.97673 29.2377L2.98887 29.2643L3.00333 29.2926L3.01894 29.3198L3.03571 29.3452L3.05421 29.3712L3.07213 29.3944L3.0918 29.4163L3.11319 29.4395L3.13747 29.4626L3.1606 29.4828L3.18373 29.5008L3.20859 29.5181L3.23519 29.5349L3.26179 29.5505L3.28838 29.5638L3.31903 29.5777L3.34678 29.5892L3.37569 29.5985L3.40402 29.6071L3.43582 29.6141L3.46763 29.6199L3.4977 29.6233L3.53065 29.6262L3.56303 29.6274V30.4155L3.48902 30.4137L3.41733 30.4085L3.34447 30.3993L3.27393 30.386L3.20512 30.3704L3.13632 30.3507L3.06867 30.3276L3.00217 30.301L2.94146 30.2732L2.87901 30.2414L2.81888 30.2067L2.76164 30.1703L2.70498 30.1304L2.64947 30.0871L2.59743 30.0414L2.54944 29.9957L2.5026 29.9477L2.45635 29.8951L2.41299 29.8396L2.37367 29.7847L2.33608 29.7263L2.30197 29.6667L2.27017 29.606L2.24068 29.5412L2.21524 29.4759L2.19269 29.4106L2.17361 29.3429L2.15742 29.2741L2.1447 29.2041L2.13545 29.1336L2.12967 29.0607L2.12793 28.9879L2.13024 28.9867ZM2.92585 6.61606V28.9867H2.13024V6.61606H2.92585ZM3.56245 5.18789V5.97599L3.53007 5.97714L3.49712 5.98003L3.46705 5.9835L3.43525 5.98928L3.40345 5.99622L3.37511 6.0049L3.3462 6.01415L3.31845 6.02571L3.28781 6.03959L3.26121 6.05289L3.23461 6.0685L3.20802 6.08527L3.18315 6.10261L3.16002 6.12054L3.13632 6.14193L3.11261 6.16332L3.0918 6.18587L3.07098 6.209L3.05305 6.23213L3.03456 6.25815L3.01779 6.28359L3.00217 6.31077L2.98772 6.3391L2.97558 6.36569L2.96401 6.39518L2.95418 6.42525L2.94493 6.45589L2.93799 6.48712L2.93279 6.51834L2.92816 6.5513L2.92585 6.5831L2.9247 6.61663H2.12909L2.13082 6.54378L2.1366 6.47093L2.14586 6.40039L2.15858 6.33042L2.17477 6.26162L2.19385 6.19397L2.2164 6.12863L2.24183 6.06329L2.27132 5.99854L2.30313 5.93782L2.33724 5.87827L2.37482 5.81987L2.41414 5.76494L2.4575 5.70943L2.5026 5.6574L2.5506 5.60767L2.59917 5.56141L2.65005 5.51689L2.70555 5.47353L2.76222 5.43363L2.81946 5.3972L2.87959 5.36251L2.94204 5.33071L3.00275 5.30296L3.06925 5.27636L3.13689 5.25323L3.2057 5.23357L3.2745 5.21796L3.34505 5.20466L3.4179 5.19541L3.4896 5.19021L3.56361 5.18847L3.56245 5.18789Z" fill="black"/>
<path d="M31.0114 40.1982H22.1013C21.0705 40.1982 20.2349 41.0339 20.2349 42.0647V45.1933C20.2349 46.2241 21.0705 47.0598 22.1013 47.0598H31.0114C32.0422 47.0598 32.8779 46.2241 32.8779 45.1933V42.0647C32.8779 41.0339 32.0422 40.1982 31.0114 40.1982Z" stroke="black" stroke-width="0.666729" stroke-miterlimit="22.9256"/>
<path d="M26.5567 38.7376C28.3896 38.7376 29.8756 37.2516 29.8756 35.4187C29.8756 33.5857 28.3896 32.0998 26.5567 32.0998C24.7237 32.0998 23.2378 33.5857 23.2378 35.4187C23.2378 37.2516 24.7237 38.7376 26.5567 38.7376Z" stroke="black" stroke-width="0.666729" stroke-miterlimit="22.9256"/>
<path d="M13 18.057C14.833 18.057 16.3189 16.5711 16.3189 14.7381C16.3189 12.9052 14.833 11.4193 13 11.4193C11.1671 11.4193 9.68115 12.9052 9.68115 14.7381C9.68115 16.5711 11.1671 18.057 13 18.057Z" fill="#FFCC00" stroke="black" stroke-width="0.666729" stroke-miterlimit="22.9256"/>
<path fill-rule="evenodd" clip-rule="evenodd" d="M25.2702 26.2541C25.3165 26.2246 25.3639 26.1442 25.6096 25.7279C25.8553 25.311 26.2994 24.5588 26.522 24.1829C26.744 23.8065 26.744 23.8065 25.0065 22.9496C23.269 22.0916 19.7935 20.376 18.056 19.5249C16.3185 18.6732 16.3185 18.6854 15.9241 18.7854C15.5298 18.8849 14.7417 19.0716 14.0369 19.1768C13.332 19.2827 12.7105 19.3069 11.9981 19.1768C11.2858 19.0462 10.4832 18.76 9.97963 18.6171C9.47601 18.4743 9.2719 18.4743 8.71625 18.8288C8.16002 19.1826 7.25282 19.8915 6.80529 20.3327C6.35776 20.7738 6.3699 20.9479 6.37626 22.6195C6.38262 24.2916 6.38262 27.4613 6.42657 29.1144C6.46993 30.7675 6.55666 30.9045 6.83073 31.0462C7.10422 31.1879 7.56389 31.3341 7.93683 31.4082C8.30977 31.481 8.59598 31.481 8.82553 33.2977C9.05565 35.1139 9.2297 38.7461 9.33551 40.5813C9.44132 42.416 9.47775 42.453 9.8264 42.4721C10.1745 42.4906 10.8331 42.4906 11.1742 42.4709C11.5148 42.4513 11.5367 42.4131 11.7668 40.6669C11.997 38.9202 12.4341 35.466 12.6717 33.6504C12.9088 31.8349 12.9458 31.6585 13.1667 33.3925C13.387 35.126 13.7911 38.7716 13.99 40.597C14.1889 42.4223 14.1832 42.4281 14.559 42.431C14.9348 42.4339 15.6934 42.4339 16.0785 42.4339C16.4636 42.4339 16.4763 42.4339 16.6006 39.3295C16.7249 36.2246 16.9608 30.0158 17.154 26.7091C17.3465 23.4029 17.4951 22.9988 18.818 23.4041C20.1404 23.8094 22.6365 25.0248 23.9074 25.6429C25.1777 26.261 25.2228 26.283 25.2696 26.2535L25.2702 26.2541Z" fill="#FFCC00" stroke="black" stroke-width="0.666729" stroke-miterlimit="22.9256"/>
<path d="M45.4811 40.1982H36.571C35.5402 40.1982 34.7046 41.0339 34.7046 42.0647V45.1933C34.7046 46.2241 35.5402 47.0598 36.571 47.0598H45.4811C46.5119 47.0598 47.3476 46.2241 47.3476 45.1933V42.0647C47.3476 41.0339 46.5119 40.1982 45.4811 40.1982Z" stroke="black" stroke-width="0.666729" stroke-miterlimit="22.9256"/>
<path d="M41.0264 38.7376C42.8594 38.7376 44.3453 37.2516 44.3453 35.4187C44.3453 33.5857 42.8594 32.0998 41.0264 32.0998C39.1934 32.0998 37.7075 33.5857 37.7075 35.4187C37.7075 37.2516 39.1934 38.7376 41.0264 38.7376Z" stroke="black" stroke-width="0.666729" stroke-miterlimit="22.9256"/>
</svg>
