<svg width="218" height="88" viewBox="0 0 218 88" fill="none" xmlns="http://www.w3.org/2000/svg">
<g clip-path="url(#clip0_39_335)">
<path fill-rule="evenodd" clip-rule="evenodd" d="M34.3825 8.08802V0.0581055H39.7736V8.08802H47.8642V13.4426H39.7736V21.4686H34.3825V13.4426H26.292V8.08802H34.3825Z" fill="#B1B2B3"/>
<path d="M211 7.99902H193V13.4388H211V7.99902Z" fill="#B1B2B3"/>
<path fill-rule="evenodd" clip-rule="evenodd" d="M60.4415 35.6274L53.7631 22.9902L71.4226 22.9669L71.4382 17.9066H46.164L46.1484 22.9476L47.6269 22.9824L54.4886 35.6429L47.6269 48.2918L46.1484 48.3305L46.164 53.3676H71.4382L71.4226 48.3072L53.7631 48.2879L60.4415 35.6274Z" fill="#B1B2B3"/>
<path fill-rule="evenodd" clip-rule="evenodd" d="M0.0976562 18.8746H4.54863V25.2165C6.12568 22.9611 8.21407 21.1045 10.6458 19.7961C13.0255 18.5946 15.665 17.9885 18.3345 18.0306C20.7003 17.9988 23.0473 18.4518 25.2287 19.3611C27.4101 20.2705 29.3791 21.6166 31.0126 23.3155C32.7105 24.9668 34.0527 26.9432 34.958 29.1248C35.8632 31.3064 36.3126 33.6478 36.2789 36.0069C36.2789 41.075 34.5351 45.361 31.0555 48.9036C29.4419 50.6046 27.4896 51.9542 25.3225 52.8666C23.1555 53.7791 20.821 54.2345 18.4672 54.2039C15.8257 54.2289 13.2146 53.643 10.8408 52.4926C8.40041 51.252 6.25412 49.5098 4.54472 47.382V65.9662H0.0976562V18.8746ZM18.0225 22.3166C16.2037 22.2767 14.3964 22.6127 12.7155 23.3032C11.0346 23.9937 9.51676 25.0237 8.25842 26.3277C5.61358 28.9991 4.29116 32.3211 4.29116 36.2934C4.25221 38.7524 4.86137 41.1788 6.05829 43.3322C7.24531 45.4257 9.00294 47.1447 11.1295 48.2918C13.2495 49.4921 15.6481 50.1233 18.0888 50.1232C20.4747 50.1276 22.817 49.4879 24.8647 48.2725C26.9872 47.0398 28.7331 45.2589 29.9164 43.1192C31.1422 41.0065 31.7874 38.6114 31.7874 36.1734C31.7874 33.7355 31.1422 31.3403 29.9164 29.2276C28.7417 27.121 27.0169 25.3674 24.9232 24.1513C22.8295 22.9352 20.4444 22.3014 18.0186 22.3166H18.0225ZM132.893 53.3676H80.9212V18.8746H85.3722V49.2133H104.615V18.8746H109.199V49.2133H128.314V18.8746H132.897V53.3715L132.893 53.3676ZM177.454 18.8746V53.3715H173.003V47.4362C171.298 49.5658 169.147 51.3018 166.699 52.5236C164.317 53.6589 161.703 54.2339 159.061 54.2039C156.708 54.2357 154.373 53.7816 152.206 52.8705C150.039 51.9594 148.087 50.6112 146.473 48.9113C142.993 45.3726 141.257 41.0827 141.257 36.0147C141.221 33.652 141.67 31.3068 142.576 29.1216C143.482 26.9365 144.826 24.9571 146.527 23.3039C148.158 21.6046 150.125 20.258 152.304 19.3486C154.484 18.4392 156.829 17.9865 159.193 18.019C161.88 17.9813 164.535 18.5939 166.929 19.8038C169.359 21.1069 171.442 22.9648 173.007 25.2242V18.8746H177.454ZM159.548 22.3166C157.122 22.3003 154.737 22.9332 152.642 24.1486C150.548 25.3641 148.822 27.1172 147.647 29.2237C146.421 31.3364 145.776 33.7316 145.776 36.1695C145.776 38.6075 146.421 41.0027 147.647 43.1154C148.83 45.255 150.576 47.036 152.698 48.2686C154.756 49.4867 157.109 50.1264 159.506 50.1193C161.94 50.122 164.333 49.4905 166.445 48.288C168.565 47.1379 170.315 45.4192 171.497 43.3283C172.694 41.175 173.303 38.7486 173.264 36.2896C173.267 32.3198 171.946 28.9991 169.301 26.3277C168.044 25.0255 166.528 23.9968 164.849 23.307C163.17 22.6172 161.365 22.2812 159.548 22.3204V22.3166ZM192.004 18.8746V44.4279L217.575 18.8746H217.922V53.3715H213.467V28.0118L188.111 53.3676H187.565V18.8746H192.004Z" fill="#FFCC00" stroke="#FFCC00" stroke-width="0.31" stroke-miterlimit="22.93"/>
<path fill-rule="evenodd" clip-rule="evenodd" d="M34.3835 8.08802V0.0581055H39.7746V8.08802H47.8652V13.4426H39.7746V21.4686H34.3835V13.4426H26.293V8.08802H34.3835Z" fill="#B1B2B3"/>
<path fill-rule="evenodd" clip-rule="evenodd" d="M60.4415 35.6275L53.7631 22.9903L71.4226 22.9671L71.4382 17.9067H46.164L46.1484 22.9477L47.6269 22.9825L54.4886 35.643L47.6269 48.2919L46.1484 48.3306L46.164 53.3677H71.4382L71.4226 48.3074L53.7631 48.288L60.4415 35.6275Z" fill="#B1B2B3"/>
<path fill-rule="evenodd" clip-rule="evenodd" d="M0.0976562 18.8746H4.54863V25.2165C6.12568 22.9611 8.21407 21.1045 10.6458 19.7961C13.0255 18.5946 15.665 17.9885 18.3345 18.0306C20.7003 17.9988 23.0473 18.4518 25.2287 19.3611C27.4101 20.2705 29.3791 21.6166 31.0126 23.3155C32.7105 24.9668 34.0527 26.9432 34.958 29.1248C35.8632 31.3064 36.3126 33.6478 36.2789 36.0069C36.2789 41.075 34.5351 45.361 31.0555 48.9036C29.4419 50.6046 27.4896 51.9542 25.3225 52.8666C23.1555 53.7791 20.821 54.2345 18.4672 54.2039C15.8257 54.2289 13.2146 53.643 10.8408 52.4926C8.40041 51.252 6.25412 49.5098 4.54472 47.382V65.9662H0.0976562V18.8746ZM18.0225 22.3166C16.2037 22.2767 14.3964 22.6127 12.7155 23.3032C11.0346 23.9937 9.51676 25.0237 8.25842 26.3277C5.61358 28.9991 4.29116 32.3211 4.29116 36.2934C4.25221 38.7524 4.86137 41.1788 6.05829 43.3322C7.24531 45.4257 9.00294 47.1447 11.1295 48.2918C13.2495 49.4921 15.6481 50.1233 18.0888 50.1232C20.4747 50.1276 22.817 49.4879 24.8647 48.2725C26.9872 47.0398 28.7331 45.2589 29.9164 43.1192C31.1422 41.0065 31.7874 38.6114 31.7874 36.1734C31.7874 33.7355 31.1422 31.3403 29.9164 29.2276C28.7417 27.121 27.0169 25.3674 24.9232 24.1513C22.8295 22.9352 20.4444 22.3014 18.0186 22.3166H18.0225ZM132.893 53.3676H80.9212V18.8746H85.3722V49.2133H104.615V18.8746H109.199V49.2133H128.314V18.8746H132.897V53.3715L132.893 53.3676ZM177.454 18.8746V53.3715H173.003V47.4362C171.298 49.5658 169.147 51.3018 166.699 52.5236C164.317 53.6589 161.703 54.2339 159.061 54.2039C156.708 54.2357 154.373 53.7816 152.206 52.8705C150.039 51.9594 148.087 50.6112 146.473 48.9113C142.993 45.3726 141.257 41.0827 141.257 36.0147C141.221 33.652 141.67 31.3068 142.576 29.1216C143.482 26.9365 144.826 24.9571 146.527 23.3039C148.158 21.6046 150.125 20.258 152.304 19.3486C154.484 18.4392 156.829 17.9865 159.193 18.019C161.88 17.9813 164.535 18.5939 166.929 19.8038C169.359 21.1069 171.442 22.9648 173.007 25.2242V18.8746H177.454ZM159.548 22.3166C157.122 22.3003 154.737 22.9332 152.642 24.1486C150.548 25.3641 148.822 27.1172 147.647 29.2237C146.421 31.3364 145.776 33.7316 145.776 36.1695C145.776 38.6075 146.421 41.0027 147.647 43.1154C148.83 45.255 150.576 47.036 152.698 48.2686C154.756 49.4867 157.109 50.1264 159.506 50.1193C161.94 50.122 164.333 49.4905 166.445 48.288C168.565 47.1379 170.315 45.4192 171.497 43.3283C172.694 41.175 173.303 38.7486 173.264 36.2896C173.267 32.3198 171.946 28.9991 169.301 26.3277C168.044 25.0255 166.528 23.9968 164.849 23.307C163.17 22.6172 161.365 22.2812 159.548 22.3204V22.3166ZM192.004 18.8746V44.4279L217.575 18.8746H217.922V53.3715H213.467V28.0118L188.111 53.3676H187.565V18.8746H192.004Z" fill="#FFCC00" stroke="#FFCC00" stroke-width="0.31" stroke-miterlimit="22.93"/>
</g>
<defs>
<clipPath id="clip0_39_335">
<rect width="218" height="88" fill="white"/>
</clipPath>
</defs>
</svg>
