<svg width="81" height="100" viewBox="0 0 81 100" fill="none" xmlns="http://www.w3.org/2000/svg">
<path fill-rule="evenodd" clip-rule="evenodd" d="M60.5738 75.5372C61.2774 73.906 62.4051 71.4551 63.1746 70.1043C63.9436 68.7539 64.3547 68.5036 65.3602 70.1352C66.3656 71.7667 67.9666 75.2797 68.8482 77.036C69.7302 78.7927 69.8937 78.7927 71.5855 78.8949C73.2781 78.9975 76.4991 79.2027 78.3054 79.4301C80.1121 79.6582 80.5048 79.9081 79.3356 81.3745C78.1663 82.8408 75.436 85.5245 74.03 86.8653C72.6239 88.207 72.542 88.207 72.8689 90.0086C73.1958 91.8103 73.932 95.4133 74.128 97.2901C74.324 99.167 73.9806 99.3165 72.4601 98.6104C70.9395 97.9043 68.2419 96.3418 66.6125 95.4656C64.9835 94.5897 64.4224 94.3994 62.9101 95.081C61.3978 95.7624 58.9339 97.3142 57.4654 98.1404C55.9961 98.9671 55.5222 99.0667 55.481 97.2905C55.4402 95.514 55.8326 91.8607 55.9714 89.9346C56.1105 88.009 55.9961 87.811 54.7613 86.6197C53.527 85.4283 51.1727 83.244 49.9383 81.9432C48.7039 80.6432 48.5902 80.2258 50.184 79.8482C51.7783 79.4702 55.0804 79.1318 56.8875 78.9624C58.6938 78.793 59.0046 78.793 59.299 78.3872C59.5934 77.9813 59.8713 77.1691 60.5738 75.5376V75.5372Z" fill="#FFC100"/>
<path fill-rule="evenodd" clip-rule="evenodd" d="M46.1061 53C46.836 55.7776 48.063 58.4108 49.7216 60.1961C51.3801 61.9821 53.9678 62.7758 56.4564 63.2052C58.9443 63.6354 61.333 63.7016 63.4896 64.4291C65.6461 65.157 67.5707 66.5462 69.0308 68.2657C70.4901 69.9855 71.486 72.0357 72.0833 74.8799C72.6804 77.7241 72.8792 81.3624 72.979 83.181C73.0785 85 73.0785 85 66.7744 85C46.5912 85 26.4083 85 6.22546 85C-0.0782192 85 -0.0782187 85 0.0208397 83.181C0.120657 81.3621 0.319532 77.7241 0.916539 74.8799C1.51393 72.036 2.50906 69.9855 3.96913 68.2657C5.42882 66.5462 7.35382 65.157 9.50995 64.4291C11.6668 63.7016 14.0556 63.6354 16.5435 63.2052C19.0321 62.7755 21.6201 61.9817 23.2783 60.1961C24.9372 58.4104 25.6356 55.9259 26.3654 53.1479C33.1006 53.1479 39.3713 53 46.1065 53H46.1061Z" fill="#CFCFCF"/>
<path fill-rule="evenodd" clip-rule="evenodd" d="M60.5738 75.5372C61.2774 73.906 62.4051 71.4551 63.1746 70.1043C63.9436 68.7539 64.3547 68.5036 65.3602 70.1352C66.3656 71.7667 67.9666 75.2797 68.8482 77.036C69.7302 78.7927 69.8937 78.7927 71.5855 78.8949C73.2781 78.9975 76.4991 79.2027 78.3054 79.4301C80.1121 79.6582 80.5048 79.9081 79.3356 81.3745C78.1663 82.8408 75.436 85.5245 74.03 86.8653C72.6239 88.207 72.542 88.207 72.8689 90.0086C73.1958 91.8103 73.932 95.4133 74.128 97.2901C74.324 99.167 73.9806 99.3165 72.4601 98.6104C70.9395 97.9043 68.2419 96.3418 66.6125 95.4656C64.9835 94.5897 64.4224 94.3994 62.9101 95.081C61.3978 95.7624 58.9339 97.3142 57.4654 98.1404C55.9961 98.9671 55.5222 99.0667 55.481 97.2905C55.4402 95.514 55.8326 91.8607 55.9714 89.9346C56.1105 88.009 55.9961 87.811 54.7613 86.6197C53.527 85.4283 51.1727 83.244 49.9383 81.9432C48.7039 80.6432 48.5902 80.2258 50.184 79.8482C51.7783 79.4702 55.0804 79.1318 56.8875 78.9624C58.6938 78.793 59.0046 78.793 59.299 78.3872C59.5934 77.9813 59.8713 77.1691 60.5738 75.5376V75.5372Z" fill="#FFC100" stroke="white" stroke-miterlimit="22.9256"/>
<path d="M11.5114 52C12.3335 52 13 51.3284 13 50.5C13 49.6716 12.3335 49 11.5114 49L6.48865 49C5.66649 49 5 49.6716 5 50.5C5 51.3284 5.66649 52 6.48865 52L11.5114 52Z" fill="#CFCFCF"/>
<path d="M68.3004 21.0937C68.959 20.4752 68.9914 19.4399 68.3729 18.7813C67.7544 18.1227 66.7191 18.0903 66.0605 18.7088L62.0372 22.4876C61.3787 23.1062 61.3462 24.1415 61.9648 24.8C62.5833 25.4586 63.6186 25.491 64.2772 24.8725L68.3004 21.0937Z" fill="#CFCFCF"/>
<path d="M65.8672 24.9215C66.4858 25.5801 67.5211 25.6125 68.1796 24.994C68.8382 24.3755 68.8706 23.3402 68.2521 22.6816L64.4733 18.6583C63.8548 17.9998 62.8195 17.9673 62.1609 18.5859C61.5024 19.2044 61.4699 20.2397 62.0885 20.8983L65.8672 24.9215Z" fill="#CFCFCF"/>
<path fill-rule="evenodd" clip-rule="evenodd" d="M26.4006 52.1778C25.9908 52.3134 25.8161 52.5849 26.2624 55.143C26.7091 57.701 27.7756 62.546 28.4071 64.9685C29.039 67.3914 29.2362 67.3914 30.4053 66.297C31.5752 65.2022 33.7184 63.0133 34.7895 61.9189C35.8609 60.8241 35.8609 60.824 36.8583 61.8559C37.8558 62.8873 39.8514 64.9506 40.9141 65.9824C41.9777 67.0139 42.1088 67.0139 42.823 64.8984C43.5375 62.7829 44.8351 58.5519 45.4591 56.2314C46.0831 53.9114 46.0339 53.5019 45.9531 53.1168C45.8731 52.7312 45.7615 52.37 45.6691 52.1862C45.5763 52.002 45.5023 51.9956 44.9669 52.0012C44.4316 52.0068 43.4342 52.0243 42.2707 52.0331C41.1072 52.0419 39.7773 52.0419 37.9057 52.0419C36.0341 52.0419 33.6211 52.0419 31.8968 52.0419C30.1728 52.0419 29.1374 52.0419 28.2971 52.0419C27.4567 52.0419 26.8109 52.0419 26.4003 52.1774L26.4006 52.1778Z" fill="#CFCFCF" stroke="#E6E6E6" stroke-width="0.416774" stroke-miterlimit="22.9256"/>
<path fill-rule="evenodd" clip-rule="evenodd" d="M32.0708 46.0694C29.0625 46.1618 28.0129 46.3473 27.4911 46.5371C26.97 46.7265 26.9763 46.9197 27.0162 48.0769C27.0562 49.2333 27.1294 51.3536 27.2625 52.4814C27.3961 53.6088 27.5906 53.7441 28.9394 55.045C30.2885 56.3456 32.7931 58.8122 34.1829 60.0625C35.5735 61.3124 35.8494 61.346 37.4101 59.9608C38.9709 58.5753 41.816 55.7708 43.2869 54.3099C44.7577 52.8482 44.8542 52.7307 44.9123 51.662C44.9704 50.5934 44.9888 48.5739 44.9988 47.4682C45.0088 46.362 45.0103 46.1695 42.5283 46.0729C40.0456 45.9763 35.0787 45.9763 32.0704 46.0694H32.0708Z" fill="white" stroke="#CFCFCF" stroke-miterlimit="22.9256"/>
<path fill-rule="evenodd" clip-rule="evenodd" d="M19.7408 22.9055C19.3355 23.9988 18.3901 23.7377 17.6978 23.6399C17.0054 23.5416 16.5662 23.6074 16.2957 24.2928C16.0257 24.9786 15.9248 26.2848 16.0593 27.9504C16.1945 29.6156 16.5658 31.6401 17.3257 32.6195C18.086 33.5989 19.2339 33.5335 20.0104 34.1379C20.7874 34.7415 21.193 36.0152 21.919 37.8761C22.6453 39.7374 23.6923 42.1862 25.3811 44.1454C27.0698 46.1049 29.4002 47.5736 31.9331 48.3248C34.466 49.0756 37.2014 49.1088 39.346 48.8638C41.491 48.6184 43.0445 48.0962 44.7668 46.1206C46.4895 44.145 48.3807 40.7168 49.3937 38.3494C50.4071 35.982 50.5419 34.6757 50.8626 34.0882C51.1837 33.5002 51.6902 33.6306 52.3315 33.2716C52.9732 32.9127 53.7502 32.0637 54.2571 30.676C54.7636 29.2883 55 27.3613 55 26.023C55 24.6843 54.7636 23.9331 54.3413 23.6391C53.9194 23.3452 53.3113 23.5084 52.9566 22.8394C52.6019 22.17 52.5007 20.6677 52.5177 18.97C52.5343 17.272 52.6696 15.3786 51.6732 14.1052C50.6775 12.8315 48.5492 12.1782 45.9657 11.6721C43.3821 11.1663 40.3428 10.807 36.1207 10.4805C31.8991 10.1537 26.4949 9.8597 23.7089 10.0719C20.9226 10.284 20.7538 11.0027 20.5509 12.2271C20.3485 13.4512 20.1121 15.1821 20.0614 17.2723C20.0108 19.3619 20.146 21.8107 19.7404 22.9048L19.7408 22.9055Z" fill="white" stroke="#CFCFCF" stroke-miterlimit="22.9256"/>
<path fill-rule="evenodd" clip-rule="evenodd" d="M18.0004 21.6188C17.9922 22.8352 18.1227 23.7186 18.3752 24.4162C18.6281 25.1134 19.003 25.6243 19.4428 25.8713C19.8833 26.1182 20.3883 26.1005 20.8367 24.9905C21.285 23.8801 21.6767 21.6763 21.8967 19.6446C22.1168 17.6125 22.1657 15.7538 22.2552 14.5485C22.3451 13.3432 22.4752 12.7921 22.8095 12.4738C23.144 12.1552 23.6819 12.0693 24.717 12.4309C25.7521 12.7921 27.2847 13.6012 29.3713 14.3933C31.4586 15.185 34.0998 15.9602 37.2789 16.3127C40.4579 16.666 44.1753 16.5967 46.4823 16.5191C48.7893 16.4419 49.686 16.3556 50.1668 16.924C50.6479 17.4924 50.7132 18.7147 50.7617 19.8853C50.8106 21.0555 50.8438 22.175 50.9333 22.9238C51.0228 23.6726 51.1694 24.0511 51.5036 24.2205C51.8382 24.3894 52.3593 24.3485 52.7453 24.3776C53.1314 24.4064 53.3809 24.5041 53.6122 23.836C53.8431 23.1676 54.0553 21.733 53.987 19.2342C53.9191 16.735 53.5715 13.1706 52.9329 10.6741C52.2944 8.17806 51.3652 6.74902 50.0366 5.35425C48.708 3.95948 46.9795 2.59937 44.9172 1.71272C42.8552 0.826074 40.4579 0.412488 37.9477 0.171821C35.437 -0.0692408 32.8122 -0.138172 30.1467 0.516081C27.4813 1.17034 24.7744 2.54817 22.7938 4.28562C20.8128 6.02347 19.5573 8.12094 18.9299 10.3508C18.3021 12.5802 18.3021 14.9412 18.2283 16.8965C18.1552 18.8521 18.0089 20.4009 18.0004 21.618V21.6188Z" fill="#CFCFCF"/>
<path fill-rule="evenodd" clip-rule="evenodd" d="M17.2786 63.0614C16.9784 63.1261 16.9807 63.1635 17.0163 63.8263C17.0522 64.4886 17.1218 65.7762 17.6999 66.5135C18.2777 67.2503 19.3643 67.4372 20.2503 67.4372C21.1362 67.4372 21.821 67.2503 21.8711 67.4682C21.9212 67.6857 21.3366 68.308 20.8766 68.9302C20.4174 69.5524 20.0828 70.1754 20.4587 71.0984C20.8349 72.0214 21.9212 73.2451 23.534 75.6122C25.1472 77.979 27.2857 81.4893 28.481 83.2452C29.6762 85 29.9271 85 30.6708 85C31.4141 85 32.651 85 33.3614 85C34.0715 85 34.2554 85 33.574 81.9954C32.8927 78.9909 31.346 72.9814 30.4184 68.3991C29.4912 63.8172 29.1822 60.6613 28.658 58.484C28.1342 56.306 27.3947 55.1065 26.9141 54.4937C26.4346 53.8809 26.214 53.8552 25.9547 54.3243C25.6959 54.7929 25.3984 55.7564 24.9675 56.7607C24.5369 57.7657 23.9726 58.812 23.49 59.5878C23.0075 60.3636 22.6064 60.8694 21.8352 61.3619C21.0639 61.854 19.9237 62.3333 19.0523 62.6189C18.1809 62.9048 17.5787 62.9971 17.2786 63.0614Z" fill="white" stroke="#CFCFCF" stroke-miterlimit="22.9256"/>
<path fill-rule="evenodd" clip-rule="evenodd" d="M55 63.7442C54.9962 64.4141 54.9241 65.7388 54.3437 66.4945C53.7633 67.2503 52.6738 67.4372 51.7855 67.4372C50.8973 67.4372 50.2107 67.2503 50.1605 67.4682C50.1103 67.6857 50.6964 68.308 51.1576 68.9302C51.618 69.5524 51.9535 70.1754 51.5766 71.0984C51.1994 72.0214 50.1103 73.2451 48.4933 75.6122C46.8759 77.979 44.7318 81.4893 43.5334 83.2452C42.3354 85 42.0835 85 41.3383 85C40.5927 85 39.3525 85 38.6402 85C37.9283 85 37.7439 85 38.4271 81.9954C39.1102 78.9909 40.6609 72.9814 41.5909 68.3991C42.5206 63.8172 42.8303 60.6613 43.3559 58.484C43.8811 56.306 44.6225 55.1065 45.1044 54.4937C45.5851 53.8809 45.8063 53.8552 46.0662 54.3243C46.3258 54.7929 46.624 55.7564 47.0741 56.7278C47.5245 57.6995 48.1272 58.68 48.6443 59.4255C49.1611 60.1703 49.5931 60.6802 50.3625 61.1879C51.1319 61.6959 52.2391 62.2005 53.0472 62.5103C53.8553 62.8193 54.3655 62.9332 54.6519 62.9971C54.939 63.0607 55.0031 63.075 54.9992 63.7446L55 63.7442Z" fill="white" stroke="#CFCFCF" stroke-miterlimit="22.9256"/>
<path fill-rule="evenodd" clip-rule="evenodd" d="M33.2052 67.3145C32.86 68.7243 32.3595 71.5539 32.1353 73.0878C31.9114 74.6214 31.9635 74.8589 32.3055 76.5775C32.6476 78.2953 33.2798 81.4934 33.6418 83.1465C34.0038 84.7996 34.0963 84.9068 34.7742 84.9605C35.4525 85.0145 36.7167 85.0145 37.3703 84.9521C38.0243 84.8896 38.0686 84.7659 38.4081 83.1128C38.7476 81.4597 39.3817 78.2785 39.7172 76.6051C40.0532 74.9309 40.0892 74.7651 39.8283 73.3143C39.5673 71.8635 39.0093 69.1274 38.7176 67.7969C38.426 66.466 38.4013 66.5403 37.878 66.6146C37.355 66.6882 36.3336 66.7617 35.5928 66.6464C34.8517 66.5307 34.3915 66.2265 34.0656 66.0702C33.7407 65.9132 33.5504 65.904 33.2048 67.3145H33.2052Z" fill="white" stroke="#CFCFCF" stroke-miterlimit="22.9256"/>
<path fill-rule="evenodd" clip-rule="evenodd" d="M33.8646 62.577C33.5036 63.0678 33.0946 63.7582 33.0144 64.4198C32.9345 65.0806 33.1839 65.7123 33.8422 66.1532C34.5009 66.5932 35.5678 66.8428 36.4712 66.9515C37.3745 67.0598 38.1138 67.0284 38.5295 66.4164C38.9452 65.8036 39.0384 64.6107 38.9873 63.9237C38.9365 63.2363 38.7415 63.0553 38.3895 62.7265C38.0379 62.3978 37.5294 61.9218 37.0674 61.5696C36.6061 61.2174 36.1916 60.9898 35.8305 61.0004C35.4695 61.0098 35.162 61.2575 34.8509 61.5272C34.5402 61.796 34.2264 62.0865 33.8646 62.577Z" fill="white" stroke="#CFCFCF" stroke-miterlimit="22.9256"/>
<path d="M10 47.6747C10 46.7498 9.32843 46 8.5 46C7.67157 46 7 46.7498 7 47.6747L7 53.3253C7 54.2502 7.67157 55 8.5 55C9.32843 55 10 54.2502 10 53.3253V47.6747Z" fill="#CFCFCF"/>
</svg>
