<svg width="38" height="37" viewBox="0 0 38 37" fill="none" xmlns="http://www.w3.org/2000/svg">
<path d="M26.8698 0.672544H11.8751V0.000484542H26.8698V0.672544ZM29.8255 2.95716H29.1558L29.1529 2.8399L29.1442 2.72458L29.1297 2.61071L29.1093 2.4983L29.0841 2.38782L29.0531 2.28025L29.0172 2.17462L28.9761 2.07142L28.9305 1.97015L28.8796 1.8713L28.8244 1.77585L28.7653 1.68378L28.7008 1.59366L28.633 1.50692L28.5603 1.42358L28.4843 1.34363L28.4043 1.26756L28.321 1.19536L28.2342 1.12753L28.1441 1.06308L28.052 1.00397L27.9561 0.948733L27.8573 0.897856L27.756 0.852309L27.6523 0.811123L27.5467 0.775267L27.4391 0.744741L27.3281 0.71906L27.2157 0.698709L27.1023 0.684173L26.9865 0.674967L26.8693 0.672059V0L27.0205 0.00387633L27.1697 0.0150208L27.318 0.0339179L27.4633 0.0605677L27.6058 0.093032L27.7458 0.133249L27.8834 0.179765L28.0171 0.233065L28.148 0.292179L28.2754 0.357592L28.3995 0.428819L28.5196 0.506346L28.6354 0.588718L28.7469 0.67642L28.8544 0.769937L28.9567 0.867814L29.0546 0.970052L29.1476 1.07762L29.2358 1.18907L29.3181 1.30487L29.3957 1.42504L29.4669 1.54956L29.5328 1.677L29.5919 1.80782L29.6452 1.94204L29.6917 2.07965L29.7319 2.21969L29.7649 2.36263L29.7915 2.50799L29.8104 2.65577L29.8221 2.80598L29.8259 2.95716H29.8255ZM29.1558 33.2337V2.95716H29.8255V33.2337H29.1558ZM26.8698 36.1904V35.5184L26.987 35.5154L27.1028 35.5062L27.2162 35.4917L27.3286 35.4714L27.4396 35.4457L27.5471 35.4151L27.6528 35.3793L27.7565 35.3381L27.8577 35.2926L27.9566 35.2417L28.0525 35.1864L28.1446 35.1273L28.2347 35.0629L28.3214 34.9951L28.4048 34.9229L28.4847 34.8468L28.5608 34.7668L28.6335 34.6835L28.7013 34.5968L28.7658 34.5066L28.8249 34.4146L28.8801 34.3191L28.931 34.2203L28.9765 34.119L29.0177 34.0158L29.0536 33.9102L29.0846 33.8026L29.1098 33.6921L29.1302 33.5797L29.1447 33.4658L29.1534 33.3505L29.1563 33.2333H29.8259L29.8221 33.3844L29.8104 33.5346L29.7915 33.6824L29.7649 33.8278L29.7319 33.9707L29.6917 34.1108L29.6452 34.2484L29.5919 34.3826L29.5328 34.5134L29.4669 34.6409L29.3957 34.7654L29.3181 34.8855L29.2358 35.0014L29.1476 35.1128L29.0546 35.2204L28.9567 35.3226L28.8544 35.4205L28.7469 35.514L28.6354 35.6017L28.5196 35.6841L28.3995 35.7616L28.2754 35.8328L28.148 35.8982L28.0171 35.9574L27.8834 36.0107L27.7458 36.0572L27.6058 36.0974L27.4633 36.1298L27.318 36.1565L27.1697 36.1754L27.0205 36.1865L26.8693 36.1904H26.8698ZM11.8751 35.5184H26.8698V36.1904H11.8751V35.5184ZM8.91943 33.2337H9.58907L9.59197 33.351L9.6007 33.4663L9.61524 33.5802L9.63558 33.6926L9.66078 33.8031L9.69179 33.9106L9.72764 34.0163L9.76883 34.1195L9.81438 34.2208L9.86526 34.3196L9.92049 34.4151L9.9796 34.5071L10.044 34.5972L10.1119 34.684L10.1846 34.7673L10.2606 34.8473L10.3406 34.9233L10.4239 34.9955L10.5107 35.0634L10.6008 35.1278L10.6929 35.1869L10.7888 35.2422L10.8876 35.293L10.9889 35.3386L11.0926 35.3798L11.1982 35.4156L11.3058 35.4462L11.4168 35.4718L11.5292 35.4922L11.6426 35.5067L11.7584 35.5159L11.8756 35.5188V36.1909L11.7244 36.187L11.5752 36.1759L11.4269 36.157L11.2816 36.1303L11.1391 36.0979L10.9991 36.0577L10.8615 36.0111L10.7277 35.9578L10.5969 35.8987L10.4695 35.8333L10.3454 35.7621L10.2253 35.6846L10.1095 35.6022L9.99802 35.5145L9.89045 35.421L9.78821 35.3231L9.69033 35.2208L9.5973 35.1133L9.50911 35.0018L9.42674 34.886L9.34921 34.7659L9.27799 34.6413L9.2121 34.5139L9.15298 34.3831L9.09968 34.2489L9.05316 34.1112L9.01294 33.9712L8.98 33.8283L8.95335 33.6829L8.93445 33.5351L8.92283 33.3849L8.91895 33.2337H8.91943ZM9.58907 2.95716V33.2337H8.91943V2.95716H9.58907ZM11.8751 0.000484542V0.672544L11.7579 0.675451L11.6421 0.684657L11.5287 0.699194L11.4163 0.719544L11.3053 0.745225L11.1977 0.775751L11.0921 0.811607L10.9884 0.852793L10.8872 0.89834L10.7883 0.949217L10.6924 1.00445L10.6003 1.06357L10.5102 1.12801L10.4234 1.19585L10.3401 1.26805L10.2602 1.34412L10.1841 1.42407L10.1114 1.50741L10.0436 1.59414L9.97912 1.68427L9.92 1.77633L9.86477 1.87178L9.81389 1.97063L9.76835 2.0719L9.72716 2.17511L9.6913 2.28074L9.6603 2.38831L9.6351 2.49878L9.61475 2.61119L9.60021 2.72506L9.59148 2.84038L9.58859 2.95764H8.91895L8.92283 2.80647L8.93445 2.65626L8.95335 2.50847L8.98 2.36311L9.01294 2.22017L9.05316 2.08014L9.09968 1.94253L9.15298 1.80831L9.2121 1.67748L9.27799 1.55005L9.34921 1.42552L9.42674 1.30536L9.50911 1.18955L9.5973 1.07811L9.69033 0.970537L9.78821 0.868299L9.89045 0.770421L9.99802 0.676905L10.1095 0.589203L10.2253 0.506831L10.3454 0.429304L10.4695 0.358076L10.5969 0.292663L10.7277 0.233549L10.8615 0.180249L10.9991 0.133733L11.1391 0.0935165L11.2816 0.0610522L11.4269 0.0344025L11.5752 0.0155053L11.7244 0.00436087L11.8756 0.000484542H11.8751Z" fill="black"/>
<path d="M20.9239 2.16162H16.9337C16.624 2.16162 16.373 2.41262 16.373 2.72224C16.373 3.03185 16.624 3.28285 16.9337 3.28285H20.9239C21.2335 3.28285 21.4845 3.03185 21.4845 2.72224C21.4845 2.41262 21.2335 2.16162 20.9239 2.16162Z" fill="black"/>
<path d="M23.8489 2.16162H22.4897C22.3843 2.16162 22.2988 2.41262 22.2988 2.72224C22.2988 3.03185 22.3843 3.28285 22.4897 3.28285H23.8489C23.9543 3.28285 24.0398 3.03185 24.0398 2.72224C24.0398 2.41262 23.9543 2.16162 23.8489 2.16162Z" fill="black"/>
<path d="M9.25391 29.7515H29.4903" stroke="black" stroke-width="0.666729" stroke-miterlimit="22.9256"/>
<path d="M9.25391 5.18604H29.4903" stroke="black" stroke-width="0.666729" stroke-miterlimit="22.9256"/>
<path d="M19.3719 34.3672C20.1209 34.3672 20.7281 33.76 20.7281 33.011C20.7281 32.262 20.1209 31.6548 19.3719 31.6548C18.6228 31.6548 18.0156 32.262 18.0156 33.011C18.0156 33.76 18.6228 34.3672 19.3719 34.3672Z" stroke="black" stroke-width="0.666729" stroke-miterlimit="22.9256"/>
<path fill-rule="evenodd" clip-rule="evenodd" d="M22.1951 24.7054V25.9473C22.1951 27.8792 22.1393 27.4678 23.293 26.0152L24.3333 24.7054H35.4168C36.1625 24.7054 36.773 24.0949 36.773 23.3492V18.7073C36.773 17.9616 36.1625 17.3511 35.4168 17.3511H21.6214C20.8757 17.3511 20.2651 17.9616 20.2651 18.7073V23.3492C20.2651 24.0949 20.8757 24.7054 21.6214 24.7054H22.1946H22.1951Z" fill="#FFCC00" stroke="black" stroke-width="0.666729" stroke-miterlimit="22.9256"/>
<path fill-rule="evenodd" clip-rule="evenodd" d="M15.5784 15.734C15.5784 16.3799 15.5784 17.0258 15.5784 17.6717C15.5784 18.6936 15.5949 18.447 14.9887 17.6843L13.4396 15.734H2.35623C1.61052 15.734 1 15.124 1 14.3783V9.73636C1 8.99016 1.61052 8.38013 2.35623 8.38013H16.1516C16.8973 8.38013 17.5078 8.99016 17.5078 9.73636V14.3783C17.5078 15.124 16.8973 15.734 16.1516 15.734H15.5784Z" fill="white" stroke="black" stroke-width="0.666729" stroke-miterlimit="22.9256"/>
</svg>
