<svg width="40" height="40" viewBox="0 0 40 40" fill="none" xmlns="http://www.w3.org/2000/svg">
<path fill-rule="evenodd" clip-rule="evenodd" d="M13.3046 18.9119C12.4867 17.8072 12.1285 17.3056 12.0208 16.7143C11.9133 16.1232 12.0568 15.4424 12.5822 14.6841C13.1077 13.9257 14.0155 13.0896 14.7022 12.3669C15.389 11.6446 15.8549 11.0353 15.9682 10.1753C16.0817 9.3155 15.843 8.20463 15.1024 6.84304C14.3618 5.48167 13.1198 3.86917 12.0568 2.79424C10.9938 1.71953 10.1099 1.18195 8.86189 1.03851C7.61384 0.895291 6.00134 1.14621 4.66965 1.88052C3.33796 2.61505 2.28688 3.83342 1.65376 4.81279C1.02085 5.79216 0.805913 6.53254 1.19398 8.23452C1.58226 9.93651 2.57353 12.5999 4.2337 15.741C5.89386 18.8822 8.22291 22.5011 10.3608 25.242C12.4988 27.9832 14.4454 29.8464 16.7504 31.5899C19.0554 33.3337 21.7188 34.9578 24.1221 36.2004C26.5257 37.443 28.6693 38.3039 30.5472 38.6651C32.4253 39.0265 34.0374 38.888 35.2945 38.2007C36.5517 37.5134 37.4539 36.2775 38.066 34.9608C38.6783 33.644 39.001 32.2465 38.8636 31.0342C38.7262 29.8221 38.1291 28.7948 37.1437 27.7856C36.1584 26.7765 34.7849 25.785 33.6383 25.2177C32.4918 24.6505 31.5721 24.507 30.7719 24.7161C29.9717 24.9252 29.2909 25.4864 28.4368 26.2149C27.5828 26.9435 26.5558 27.8395 25.7615 28.3649C24.9672 28.8904 24.406 29.0458 22.9308 28.1619C21.4559 27.2781 19.0671 25.3551 17.2338 23.5398C15.4007 21.7245 14.1228 20.0167 13.3046 18.9119Z" stroke="#B1B2B3" stroke-width="2" stroke-miterlimit="22.9256"/>
</svg>
