<svg width="31" height="27" viewBox="0 0 31 27" fill="none" xmlns="http://www.w3.org/2000/svg">
<path d="M5.75888 26.208C4.28688 26.208 3.00688 25.696 1.91888 24.672C0.894875 23.584 0.382875 22.304 0.382875 20.832L0.382875 15.168C0.382875 9.024 3.00688 4.352 8.25488 1.152C8.70288 0.831997 9.24688 0.671997 9.88688 0.671997C10.6549 0.671997 11.2949 0.959997 11.8069 1.536C12.3829 2.112 12.6709 2.784 12.6709 3.55199C12.6709 4.576 12.1909 5.376 11.2309 5.952C9.63088 6.912 8.41488 8.032 7.58288 9.31199C6.75088 10.592 6.33488 12.448 6.33488 14.88H6.71887C8.19088 14.88 9.43888 15.424 10.4629 16.512C11.5509 17.536 12.0949 18.784 12.0949 20.256L12.0949 20.832C12.0949 22.304 11.5509 23.584 10.4629 24.672C9.43888 25.696 8.19088 26.208 6.71887 26.208H5.75888ZM23.1349 26.208C21.6629 26.208 20.3829 25.696 19.2949 24.672C18.2709 23.584 17.7589 22.304 17.7589 20.832V15.168C17.7589 9.024 20.3829 4.352 25.6309 1.152C26.0789 0.831997 26.6229 0.671997 27.2629 0.671997C28.0309 0.671997 28.6709 0.959997 29.1829 1.536C29.7589 2.112 30.0469 2.784 30.0469 3.55199C30.0469 4.576 29.5669 5.376 28.6069 5.952C27.0069 6.912 25.7909 8.032 24.9589 9.31199C24.1269 10.592 23.7109 12.448 23.7109 14.88H24.0949C25.5669 14.88 26.8149 15.424 27.8389 16.512C28.9269 17.536 29.4709 18.784 29.4709 20.256V20.832C29.4709 22.304 28.9269 23.584 27.8389 24.672C26.8149 25.696 25.5669 26.208 24.0949 26.208H23.1349Z" fill="black"/>
</svg>
