<svg width="33" height="32" viewBox="0 0 33 32" fill="none" xmlns="http://www.w3.org/2000/svg">
<path fill-rule="evenodd" clip-rule="evenodd" d="M12.5738 7.53759C13.2774 5.90645 14.4051 3.45503 15.1744 2.10424C15.9437 0.753845 16.3544 0.503683 17.3601 2.13522C18.3659 3.76675 19.9662 7.27998 20.8485 9.03581C21.7305 10.7924 21.8939 10.7924 23.586 10.8952C25.2781 10.9983 28.4993 11.203 30.3055 11.4304C32.1122 11.6586 32.5048 11.9084 31.3356 13.3748C30.1664 14.8417 27.4362 17.5248 26.0298 18.8658C24.6241 20.2072 24.5418 20.2072 24.869 22.0089C25.1962 23.8106 25.9321 27.4136 26.1282 29.2902C26.3247 31.1668 25.9809 31.3166 24.4607 30.6104C22.9405 29.9046 20.2422 28.3417 18.6128 27.4658C16.9837 26.5898 16.4224 26.3996 14.9106 27.0807C13.3981 27.7618 10.9344 29.3145 9.46528 30.1403C7.99657 30.9668 7.52214 31.0664 7.48138 29.2898C7.44024 27.5136 7.83279 23.86 7.97197 21.9336C8.11115 20.008 7.99656 19.81 6.76161 18.6184C5.52744 17.4272 3.17292 15.2428 1.93836 13.9422C0.704188 12.642 0.589994 12.2252 2.18366 11.8472C3.7777 11.4696 7.08036 11.1308 8.88702 10.9614C10.6937 10.792 11.0044 10.792 11.2989 10.3858C11.593 9.97999 11.8714 9.16795 12.5738 7.53681V7.53759Z" fill="#FFC100" stroke="white" stroke-miterlimit="22.9256"/>
</svg>
