<svg width="154" height="151" viewBox="0 0 154 151" fill="none" xmlns="http://www.w3.org/2000/svg">
<path fill-rule="evenodd" clip-rule="evenodd" d="M23.6709 125.966C21.6579 123.725 20.1935 119.698 19.3699 115.855C18.5463 112.012 18.3635 108.352 17.1283 106.019C15.8928 103.685 13.6051 102.678 11.2719 101.613C8.93835 100.548 6.55902 99.4248 4.59185 97.8235C2.62443 96.2221 1.0689 94.1428 0.428367 91.8692C-0.212422 89.5956 0.062276 87.1279 1.70943 83.7399C3.35659 80.3519 6.37597 76.0438 7.97756 72.8604C9.57864 69.6769 9.76194 67.6181 9.16697 65.1665C8.57201 62.715 7.19954 59.871 6.37596 56.6747C5.55238 53.4787 5.27768 49.9307 5.82682 47.0317C6.37595 44.1324 7.74841 41.8818 9.94445 40.2078C12.1407 38.5335 15.1601 37.4352 18.363 36.0487C21.5657 34.6616 24.9514 32.9863 27.1477 30.5158C29.3437 28.0451 30.3504 24.7792 31.1739 21.9569C31.9975 19.1347 32.6378 16.7554 34.3894 14.6966C36.141 12.6375 39.0037 10.8992 42.0051 10.1214C45.0068 9.34342 48.147 9.52647 51.0492 9.70951C53.9513 9.8923 56.6142 10.0756 59.5353 9.2062C62.4564 8.3368 65.6352 6.41494 68.2975 4.72222C70.9597 3.02949 73.105 1.56538 75.9862 0.741799C78.867 -0.0817799 82.4834 -0.26457 85.8816 0.421788C89.2796 1.10789 92.459 2.66365 94.0491 4.49386C95.6389 6.3238 95.6389 8.42845 96.8255 9.80116C98.0121 11.1736 100.386 11.8142 103.116 12.1347C105.846 12.4547 108.934 12.4547 112.406 12.7752C115.879 13.0952 119.736 13.736 122.625 15.3832C125.515 17.0303 127.437 19.6838 128.26 23.2982C129.084 26.9128 128.809 31.4879 129.221 34.3247C129.633 37.1613 130.731 38.2596 131.966 38.8543C133.202 39.449 134.574 39.5404 136.45 39.6778C138.326 39.8151 140.705 39.9978 143.999 42.5316C147.293 45.0653 151.502 49.9494 153.058 54.0537C154.614 58.1581 153.516 61.4823 151.915 65.0398C150.313 68.5973 148.209 72.3885 148.117 74.901C148.025 77.4135 149.947 78.6477 150.954 80.7434C151.96 82.839 152.052 85.7959 150.587 88.866C149.123 91.9358 146.104 95.1185 143.176 96.7101C140.247 98.3014 137.411 98.3014 135.444 99.4581C133.476 100.615 132.378 102.928 132.058 105.457C131.738 107.986 132.195 110.731 132.424 113.11C132.653 115.49 132.653 117.503 132.195 119.287C131.738 121.071 130.822 122.627 128.134 124.137C125.444 125.647 120.981 127.111 115.269 127.66C109.558 128.209 102.598 127.843 96.7855 127.202C90.9729 126.562 86.3064 125.647 80.1015 125.281C73.8964 124.915 66.1518 125.098 58.8 125.784C51.448 126.47 44.4884 127.66 39.8887 128.301C35.2885 128.941 33.0482 129.032 30.6468 128.85C28.2455 128.667 25.6833 128.209 23.6701 125.967L23.6709 125.966Z" fill="#543718"/>
<path fill-rule="evenodd" clip-rule="evenodd" d="M88.7629 93.8794C89.1543 93.909 89.1574 93.9554 89.1648 94.0726C89.1723 94.1899 89.1843 94.3783 89.3225 96.526C89.4608 98.6736 89.7247 102.781 89.8571 104.926C89.9892 107.071 89.9892 107.254 96.4365 110.479C102.884 113.705 115.779 119.973 124.354 124.182C132.929 128.391 137.184 130.542 140.044 134.156C142.903 137.771 144.367 142.849 145.191 145.892C146.014 148.935 146.197 149.941 146.289 150.444C146.38 150.948 146.38 150.948 122.703 150.948C99.0263 150.948 51.6724 150.948 27.9958 150.948C4.31858 150.948 4.31858 150.948 4.57023 149.644C4.82189 148.34 5.3252 145.732 6.30879 142.552C7.29237 139.372 8.75647 135.62 10.9528 132.853C13.1488 130.084 16.0768 128.3 22.0249 125.372C27.9725 122.444 36.9402 118.372 43.5075 115.261C50.0747 112.15 54.2415 109.999 56.6208 108.581C58.9999 107.162 59.5913 106.476 60.2641 103.931C60.9366 101.387 61.691 96.9829 62.0794 94.7145C62.4678 92.4462 62.4906 92.3126 63.4895 93.0061C64.4884 93.6996 66.4633 95.2206 69.328 96.1594C72.1925 97.0984 75.9461 97.4558 79.1324 97.1312C82.3187 96.8063 84.9371 95.7997 86.1222 95.1348C87.3072 94.4697 87.0594 94.1464 87.3251 93.9912C87.5911 93.8361 88.3712 93.8497 88.7626 93.8794H88.7629Z" fill="#FFB7A0"/>
<path fill-rule="evenodd" clip-rule="evenodd" d="M88.8003 97.4C88.2583 97.973 87.1724 99.081 84.6945 100.14C82.2165 101.199 78.3467 102.21 74.6674 102.563C70.988 102.915 67.4997 102.61 65.2225 102.334C62.945 102.058 61.879 101.81 61.3478 101.679C60.8163 101.548 60.8191 101.534 61.1046 100.046C61.3895 98.5582 61.9568 95.5972 62.2407 93.9933C62.5241 92.3894 62.5241 92.1429 64.1257 92.5249C65.7268 92.9066 68.9295 93.9171 71.9322 94.6725C74.9347 95.4278 77.7369 95.9285 80.2694 95.7723C82.8015 95.6162 85.0634 94.8036 86.4074 94.1715C87.7512 93.5392 88.1772 93.0876 88.476 92.8618C88.7747 92.636 88.9462 92.636 89.0522 93.0666C89.1579 93.4972 89.1982 94.3584 89.2319 94.9987C89.2655 95.639 89.2924 96.0578 89.309 96.313C89.3254 96.5683 89.331 96.6594 89.3351 96.7239C89.3392 96.7884 89.3418 96.8266 88.8003 97.3995V97.4Z" fill="black" fill-opacity="0.2"/>
<path fill-rule="evenodd" clip-rule="evenodd" d="M38.426 53.9835C38.893 53.5352 39.6746 52.9252 40.7995 52.5916C41.9241 52.2577 43.3923 52.2007 44.5075 52.4106C45.6226 52.6203 46.3848 53.0967 46.6234 54.7362C46.8617 56.3756 46.5758 59.1779 46.4708 61.313C46.3661 63.4481 46.4424 64.9161 46.7189 65.6309C46.9951 66.3456 47.4718 66.3075 48.4536 65.5832C49.4354 64.8587 50.922 63.4481 51.6755 62.0567C52.4284 60.6648 52.4473 59.2923 52.0948 57.8628C51.742 56.4327 51.0175 54.9461 50.741 53.6973C50.4645 52.4487 50.6363 51.438 51.6373 50.4278C52.638 49.4176 54.468 48.4069 55.8599 47.3967C57.2516 46.3865 58.2047 45.3757 59.3867 43.7649C60.5687 42.1539 61.9793 39.9427 64.0381 38.856C66.0969 37.7692 68.804 37.8074 70.4148 37.4548C72.0256 37.1021 72.5404 36.3584 73.122 35.3195C73.7034 34.2803 74.3514 32.946 74.9428 32.1647C75.5336 31.3828 76.0674 31.1542 76.4868 31.4115C76.9061 31.6688 77.211 32.4125 77.9258 33.3275C78.6406 34.2424 79.7657 35.3292 81.386 35.9011C83.0063 36.473 85.1224 36.5301 86.7143 36.5396C88.3061 36.5491 89.3737 36.5112 90.2127 36.8637C91.0516 37.2162 91.6614 37.9599 92.0807 38.8939C92.5001 39.8278 92.7289 40.9529 93.053 41.9918C93.3769 43.0307 93.7965 43.9836 94.2256 44.7081C94.6544 45.4326 95.0929 45.9282 95.703 46.4049C96.3128 46.8813 97.0947 47.3385 98.0194 47.8155C98.9438 48.2919 100.011 48.7876 100.64 49.8554C101.269 50.9229 101.46 52.5624 101.346 53.9541C101.231 55.3457 100.812 56.4893 100.612 57.6237C100.412 58.7581 100.431 59.883 100.64 60.9313C100.85 61.9797 101.25 62.9522 101.775 63.7433C102.299 64.5344 102.947 65.1444 103.481 65.4877C104.015 65.8308 104.434 65.9071 104.844 65.4877C105.254 65.0684 105.654 64.1532 105.788 63.0191C105.921 61.8847 105.788 60.5314 105.654 59.3208C105.521 58.1101 105.387 57.0425 105.483 56.0705C105.578 55.0982 105.902 54.2213 106.712 53.5828C107.522 52.9441 108.819 52.5437 109.896 52.439C110.973 52.334 111.831 52.5245 112.775 52.9725C113.718 53.4205 114.747 54.1261 115.424 55.1174C116.101 56.1084 116.425 57.3858 116.502 58.5486C116.578 59.7114 116.406 60.76 115.996 61.7516C115.586 62.7426 114.938 63.677 114.166 64.6588C113.394 65.6406 112.498 66.6697 111.754 67.48C111.011 68.29 110.42 68.8811 109.515 69.7582C108.609 70.6353 107.389 71.7981 106.57 72.3795C105.75 72.9611 105.33 72.9611 104.911 72.923C104.492 72.8848 104.072 72.8086 103.825 72.9803C103.577 73.1519 103.5 73.5712 102.519 75.8589C101.537 78.1463 99.6496 82.3024 98.1438 84.9902C96.6377 87.6783 95.5128 88.8982 94.436 89.9179C93.3587 90.9378 92.3296 91.7578 90.8424 92.768C89.3553 93.7782 87.4111 94.9794 85.2379 95.9517C83.0646 96.9238 80.6622 97.6675 78.6418 98.03C76.6209 98.392 74.9817 98.3728 73.1133 98.0773C71.245 97.7819 69.148 97.21 66.5557 95.847C63.9628 94.484 60.8744 92.3297 58.7108 90.3948C56.5471 88.4599 55.3077 86.7441 54.0021 84.3328C52.6962 81.9209 51.3237 78.8135 50.2467 76.5929C49.1694 74.3717 48.3875 73.0374 47.5299 72.2656C46.672 71.4934 45.7379 71.2835 44.7179 70.7881C43.698 70.2925 42.5926 69.5107 41.6681 68.3573C40.7434 67.2038 39.9997 65.679 39.3041 63.8964C38.6083 62.1138 37.9601 60.0739 37.6931 58.5489C37.426 57.0236 37.5405 56.0134 37.6739 55.3652C37.8072 54.717 37.9598 54.4313 38.4265 53.9832L38.426 53.9835Z" fill="#FDBAA0"/>
<path fill-rule="evenodd" clip-rule="evenodd" d="M59.3001 51.42C59.4716 51.0007 60.6725 49.8571 61.9784 48.9611C63.2841 48.0648 64.6947 47.4166 66.0293 46.988C67.3638 46.559 68.6221 46.3493 69.5087 46.3872C70.395 46.4253 70.9098 46.7113 71.1387 47.3024C71.3673 47.8933 71.3102 48.7896 71.1195 49.3423C70.9287 49.895 70.6046 50.1049 69.4703 50.2194C68.3359 50.3338 66.3918 50.3527 64.8191 50.5053C63.2462 50.6579 62.0453 50.9439 61.0161 51.2393C59.9867 51.5347 59.1286 51.8399 59.3003 51.4203L59.3001 51.42Z" fill="#543718"/>
<path fill-rule="evenodd" clip-rule="evenodd" d="M94.6575 51.42C94.4859 51.0007 93.285 49.8571 91.9791 48.9611C90.6735 48.0648 89.2628 47.4166 87.9283 46.988C86.5937 46.559 85.3354 46.3493 84.4489 46.3872C83.5626 46.4253 83.0477 46.7113 82.8189 47.3024C82.5902 47.8933 82.6473 48.7896 82.8381 49.3423C83.0288 49.895 83.3529 50.1049 84.4873 50.2194C85.6216 50.3338 87.5658 50.3527 89.1384 50.5053C90.7114 50.6579 91.9123 50.9439 92.9414 51.2393C93.9708 51.5347 94.829 51.8399 94.6572 51.4203L94.6575 51.42Z" fill="#543718"/>
<path d="M65.2823 62.6101C66.3561 62.6101 67.2266 60.8689 67.2266 58.7211C67.2266 56.5732 66.3561 54.832 65.2823 54.832C64.2084 54.832 63.3379 56.5732 63.3379 58.7211C63.3379 60.8689 64.2084 62.6101 65.2823 62.6101Z" fill="#512934"/>
<path d="M88.045 62.6101C89.1188 62.6101 89.9894 60.8689 89.9894 58.7211C89.9894 56.5732 89.1188 54.832 88.045 54.832C86.9711 54.832 86.1006 56.5732 86.1006 58.7211C86.1006 60.8689 86.9711 62.6101 88.045 62.6101Z" fill="#512934"/>
<path d="M58.4082 71.737C62.3405 71.737 65.5283 70.3544 65.5283 68.6488C65.5283 66.9432 62.3405 65.5605 58.4082 65.5605C54.4759 65.5605 51.2881 66.9432 51.2881 68.6488C51.2881 70.3544 54.4759 71.737 58.4082 71.737Z" fill="#EC9F8B"/>
<path d="M95.6396 71.737C99.572 71.737 102.76 70.3544 102.76 68.6488C102.76 66.9432 99.572 65.5605 95.6396 65.5605C91.7073 65.5605 88.5195 66.9432 88.5195 68.6488C88.5195 70.3544 91.7073 71.737 95.6396 71.737Z" fill="#EC9F8B"/>
<path fill-rule="evenodd" clip-rule="evenodd" d="M77.1015 63.7186C77.1396 65.2152 76.8956 68.4755 76.678 70.5059C76.4607 72.536 76.2699 73.3361 76.2128 73.898C76.1555 74.4602 76.2318 74.7843 76.8703 74.8417C77.5088 74.8987 78.7102 74.6888 79.3869 74.7651C80.0635 74.8414 80.2161 75.2036 79.4824 75.547C78.7484 75.8897 77.1278 76.2141 76.07 76.176C75.0119 76.1378 74.5163 75.7374 74.5926 73.9077C74.6689 72.078 75.3168 68.8185 75.7172 66.7218C76.1174 64.6249 76.27 63.6902 76.5065 63.0893C76.7428 62.4885 77.0631 62.2217 77.1012 63.7186H77.1015Z" fill="#EC9F8B"/>
<path fill-rule="evenodd" clip-rule="evenodd" d="M69.9474 81.9803C70.8742 82.085 72.4187 82.6001 74.1915 82.8192C75.9641 83.0384 77.9659 82.9621 79.7671 82.6096C81.5687 82.2568 83.1703 81.6275 84.2696 81.0651C85.3686 80.5026 85.9651 80.007 86.3658 79.9023C86.7659 79.7973 86.9699 80.0833 86.662 80.6457C86.354 81.2082 85.5343 82.0469 84.3333 82.7524C83.1321 83.4577 81.55 84.0294 79.8616 84.344C78.173 84.6587 76.3789 84.7157 74.7397 84.611C73.1002 84.5063 71.6156 84.2393 70.5854 83.8581C69.555 83.4769 68.9782 82.981 68.8451 82.5809C68.7114 82.1805 69.0212 81.8756 69.948 81.9803H69.9474Z" fill="#EC9F8B"/>
<path fill-rule="evenodd" clip-rule="evenodd" d="M75.4451 88.3627C75.9026 88.3627 77.2205 88.3627 78.2609 88.2795C79.3011 88.196 80.0635 88.0289 80.5686 87.8883C81.074 87.7478 81.3215 87.6333 81.4933 87.6715C81.6648 87.7096 81.7603 87.9004 81.3599 88.1482C80.9595 88.396 80.0632 88.7009 79.053 88.7462C78.0428 88.7913 76.9177 88.577 76.1543 88.47C75.3903 88.3627 74.9876 88.3627 75.4451 88.3627Z" fill="#EC9F8B"/>
<path fill-rule="evenodd" clip-rule="evenodd" d="M42.5526 57.5605C42.9873 57.7377 43.6734 58.1721 44.1997 58.7555C44.7258 59.339 45.0917 60.0712 45.1889 60.746C45.2862 61.4206 45.1145 62.0386 44.5197 62.376C43.925 62.7132 42.9072 62.7705 42.3637 62.6333C41.8201 62.4958 41.7518 62.1643 42.0147 61.8384C42.2776 61.5122 42.8726 61.1922 43.1757 60.9065C43.4786 60.6203 43.4903 60.3686 43.3132 60.0141C43.1358 59.6595 42.7694 59.2023 42.4781 58.7732C42.1862 58.3441 41.9691 57.944 41.952 57.7039C41.9348 57.4635 42.1176 57.3836 42.5526 57.561V57.5605Z" fill="#EC9F8B"/>
<path fill-rule="evenodd" clip-rule="evenodd" d="M110.296 60.5502C110.451 60.6759 110.519 60.859 110.296 61.1964C110.073 61.5338 109.558 62.0256 109.044 62.2773C108.529 62.5289 108.014 62.5405 107.706 62.3231C107.397 62.1058 107.294 61.6595 107.242 61.2422C107.19 60.8247 107.191 60.4356 107.408 59.9095C107.625 59.3831 108.06 58.72 108.746 58.1479C109.432 57.5759 110.37 57.0957 111.04 57.0327C111.709 56.9697 112.109 57.3243 112.006 57.696C111.903 58.0677 111.297 58.4569 110.754 58.8171C110.21 59.1773 109.73 59.5088 109.558 59.7489C109.387 59.9891 109.524 60.1381 109.713 60.2466C109.901 60.3554 110.142 60.4238 110.296 60.5497L110.296 60.5502Z" fill="#EC9F8B"/>
<path fill-rule="evenodd" clip-rule="evenodd" d="M27.6422 123.939C28.2292 124.927 29.4381 126.887 30.4391 130.218C31.4401 133.548 32.2324 138.25 32.5604 141.933C32.8881 145.616 32.7509 148.281 32.705 149.614C32.6592 150.946 32.705 150.946 46.7512 150.946C60.7971 150.946 88.8433 150.946 102.981 150.946C117.118 150.946 117.347 150.946 117.599 149.307C117.85 147.667 118.125 144.388 118.834 140.719C119.543 137.05 120.687 132.99 121.679 130.169C122.672 127.347 123.513 125.764 123.823 124.919C124.134 124.073 123.913 123.965 119.77 121.934C115.627 119.904 107.561 115.951 103.473 113.947C99.3852 111.944 99.2749 111.889 98.994 113.113C98.7132 114.337 98.2621 116.84 96.992 119.291C95.722 121.741 93.6337 124.139 91.2319 126.225C88.8297 128.31 86.1143 130.081 83.0409 130.967C79.9675 131.853 76.5357 131.853 73.3333 131.598C70.1306 131.343 67.1566 130.833 64.0684 129.023C60.9801 127.212 57.7775 124.101 55.6045 121.333C53.4312 118.565 52.2871 116.14 51.578 114.539C50.8688 112.937 50.5941 112.16 50.4252 111.881C50.2559 111.603 50.1927 111.824 46.6472 113.596C43.1015 115.368 36.0739 118.69 32.2709 120.474C28.4679 122.258 27.8893 122.503 27.5693 122.654C27.2492 122.805 27.1873 122.861 27.1386 122.898C27.0903 122.934 27.0549 122.951 27.6422 123.939Z" fill="#C1D7F5"/>
<path fill-rule="evenodd" clip-rule="evenodd" d="M59.1374 135.542C60.0867 136.296 62.3058 137.669 65.3597 138.79C68.4136 139.911 72.3027 140.78 75.8256 141.032C79.3485 141.284 82.5056 140.917 85.5708 140.231C88.6362 139.545 91.6103 138.538 92.6855 137.772C93.7608 137.006 92.9372 136.479 91.7363 136.514C90.5353 136.548 88.9568 137.143 86.9666 137.726C84.9764 138.31 82.5745 138.882 79.8751 139.099C77.1755 139.316 74.1787 139.179 71.1936 138.653C68.2081 138.126 65.234 137.212 63.1752 136.457C61.1161 135.702 59.9725 135.107 59.2406 134.878C58.5084 134.649 58.1884 134.787 59.1377 135.542H59.1374Z" fill="black" fill-opacity="0.2"/>
<path d="M43.9372 74.7405C45.5594 74.7405 46.8744 73.2316 46.8744 71.3703C46.8744 69.5089 45.5594 68 43.9372 68C42.315 68 41 69.5089 41 71.3703C41 73.2316 42.315 74.7405 43.9372 74.7405Z" fill="white"/>
<path d="M106.937 74.7405C108.559 74.7405 109.874 73.2316 109.874 71.3703C109.874 69.5089 108.559 68 106.937 68C105.315 68 104 69.5089 104 71.3703C104 73.2316 105.315 74.7405 106.937 74.7405Z" fill="white"/>
<path d="M64.0956 70.3944C70.0035 70.3944 74.7928 65.6051 74.7928 59.6972C74.7928 53.7893 70.0035 49 64.0956 49C58.1877 49 53.3984 53.7893 53.3984 59.6972C53.3984 65.6051 58.1877 70.3944 64.0956 70.3944Z" stroke="black" stroke-width="0.998811" stroke-miterlimit="22.9256"/>
<path d="M88.9364 70.3944C94.8443 70.3944 99.6336 65.6051 99.6336 59.6972C99.6336 53.7893 94.8443 49 88.9364 49C83.0286 49 78.2393 53.7893 78.2393 59.6972C78.2393 65.6051 83.0286 70.3944 88.9364 70.3944Z" stroke="black" stroke-width="0.998811" stroke-miterlimit="22.9256"/>
<path fill-rule="evenodd" clip-rule="evenodd" d="M75.0078 58.9276C75.2232 58.6946 75.6543 58.4968 76.2288 58.3879C76.8032 58.2786 77.5206 58.2577 77.8796 58.3462C78.2387 58.4345 78.2387 58.632 78.1761 58.8756C78.1138 59.119 77.9886 59.4084 77.7014 59.471C77.4145 59.5333 76.9652 59.3688 76.5489 59.3688C76.1329 59.3688 75.7502 59.5333 75.4627 59.6155C75.1757 59.6976 74.9838 59.6976 74.8877 59.5635C74.7921 59.4294 74.7924 59.1606 75.0078 58.9276Z" fill="black"/>
<path fill-rule="evenodd" clip-rule="evenodd" d="M100.09 58.1869C100.606 57.781 101.655 57.1521 102.783 56.645C103.912 56.1379 105.118 55.7532 106.011 55.694C106.904 55.6345 107.483 55.9007 107.757 56.1401C108.03 56.3793 107.998 56.5919 107.937 56.8023C107.876 57.0124 107.787 57.2203 107.617 57.3298C107.448 57.4387 107.198 57.4491 106.923 57.3868C106.647 57.3242 106.345 57.1892 105.662 57.2046C104.98 57.2197 103.917 57.3848 103.043 57.6452C102.169 57.9053 101.485 58.2598 100.947 58.5524C100.409 58.8449 100.017 59.0748 99.8185 59.1324C99.6198 59.1896 99.6134 59.074 99.602 58.9248C99.5902 58.7756 99.5735 58.5932 100.089 58.1875L100.09 58.1869Z" fill="black"/>
<path fill-rule="evenodd" clip-rule="evenodd" d="M52.8886 58.1869C52.3725 57.781 51.3231 57.1521 50.1952 56.645C49.0671 56.1379 47.8604 55.7532 46.9675 55.694C46.0743 55.6345 45.4951 55.9007 45.2219 56.1401C44.9484 56.3793 44.9811 56.5919 45.042 56.8023C45.1029 57.0124 45.192 57.2203 45.3616 57.3298C45.5309 57.4387 45.7804 57.4491 46.0559 57.3868C46.3316 57.3242 46.6333 57.1892 47.3162 57.2046C47.9987 57.2197 49.0621 57.3848 49.936 57.6452C50.8099 57.9053 51.4939 58.2598 52.0317 58.5524C52.5695 58.8449 52.9612 59.0748 53.1601 59.1324C53.3588 59.1896 53.3652 59.074 53.3766 58.9248C53.3884 58.7756 53.4052 58.5932 52.8891 58.1875L52.8886 58.1869Z" fill="black"/>
</svg>
