<svg width="144" height="164" viewBox="0 0 144 164" fill="none" xmlns="http://www.w3.org/2000/svg">
<path fill-rule="evenodd" clip-rule="evenodd" d="M29.0062 24.0832C28.6477 21.9333 28.6773 19.1544 29.2914 16.8146C29.9057 14.4746 31.1048 12.5734 32.7868 11.4474C34.4687 10.3211 36.633 9.97023 38.4905 10.643C40.3476 11.3154 41.8979 13.0121 43.1412 14.65C44.3843 16.2877 45.3199 17.8676 46.3001 18.7451C47.28 19.6226 48.3036 19.7981 48.8302 19.3594C49.3566 18.9206 49.3859 17.8678 49.0057 15.5281C48.6255 13.188 47.8357 9.56067 47.8506 6.98705C47.8653 4.41291 48.6839 2.89199 50.4536 2.00007C52.2232 1.1079 54.9433 0.844721 56.6692 1.03484C58.3949 1.22469 59.126 1.86836 59.4625 3.15543C59.799 4.44224 59.7404 6.37271 59.7553 8.36185C59.77 10.3507 59.8574 12.3983 60.7352 13.8021C61.6127 15.206 63.2798 15.9667 64.1869 15.5425C65.0934 15.1183 65.2396 13.5093 65.4299 11.5789C65.6198 9.6484 65.8539 7.39635 67.843 6.84067C69.8319 6.28473 73.5761 7.42568 75.5356 8.94686C77.4952 10.4678 77.6709 12.3689 78.1535 13.9778C78.6361 15.5865 79.4256 16.9026 80.698 17.8095C81.9702 18.716 83.7252 19.2133 85.7143 19.769C87.7032 20.3247 89.9259 20.9388 92.2516 21.6699C94.5769 22.401 97.0047 23.2497 98.8328 24.4781C100.661 25.7065 101.889 27.3155 102.855 28.5001C103.82 29.6846 104.522 30.4453 105.063 30.0064C105.604 29.5675 105.984 27.9298 106.174 26.6867C106.364 25.4434 106.364 24.5952 107.257 23.9518C108.149 23.3081 109.933 22.8695 111.132 22.9575C112.332 23.0449 112.946 23.6593 113.239 24.5368C113.531 25.4143 113.501 26.5547 112.946 27.608C112.39 28.6609 111.308 29.6262 110.459 30.957C109.611 32.2878 108.997 33.9841 109.465 34.4524C109.933 34.9203 111.483 34.1596 112.844 33.677C114.204 33.1943 115.374 32.9898 116.412 33.3117C117.45 33.6332 118.357 34.4814 118.62 35.3736C118.884 36.2655 118.503 37.2014 117.626 37.8304C116.748 38.4592 115.374 38.7807 113.838 38.9127C112.303 39.0444 110.606 38.9858 109.392 38.9127C108.178 38.8394 107.447 38.7519 107.023 38.986C106.599 39.2201 106.482 39.7756 106.306 40.5363C106.13 41.2967 105.897 42.262 106.262 43.1102C106.628 43.9584 107.593 44.6895 108.149 46.8541C108.705 49.0187 108.851 52.6162 108.515 56.4627C108.178 60.309 107.359 64.4041 106.306 67.8555C105.253 71.3069 103.966 74.1149 102.899 74.963C101.831 75.8112 100.983 74.6996 100.296 72.4329C99.6082 70.1659 99.0816 66.7436 98.9208 63.8479C98.76 60.9521 98.9645 58.583 98.8624 56.8429C98.76 55.1026 98.3504 53.9907 97.5753 52.894C96.8002 51.7971 95.6595 50.715 94.87 49.6181C94.0802 48.5211 93.6416 47.4095 92.7347 46.5613C91.8279 45.7131 90.4533 45.1284 89.5172 45.2308C88.581 45.3329 88.084 46.1227 87.2649 46.7957C86.4457 47.4681 85.3053 48.0238 83.4772 48.4774C81.6489 48.9309 79.1337 49.2818 77.0571 49.4575C74.9802 49.633 73.3422 49.633 70.7243 49.6037C68.1065 49.5746 64.5087 49.5159 61.9495 49.1501C59.39 48.7845 57.8691 48.1118 56.4068 47.3074C54.944 46.5029 53.5404 45.567 52.809 45.2158C52.0776 44.8649 52.0193 45.0988 52.0923 45.523C52.1654 45.947 52.3702 46.5616 52.5312 47.1756C52.692 47.79 52.809 48.4041 52.692 49.1208C52.5749 49.8375 52.224 50.6561 51.7414 51.3144C51.2588 51.9725 50.6442 52.4698 50.1912 52.7916C49.7376 53.1132 49.4451 53.2596 49.2406 53.45C49.0358 53.6398 48.9188 53.8736 48.5972 54.8535C48.2754 55.8335 47.7487 57.5592 47.4709 58.8756C47.1931 60.1917 47.1637 61.0983 47.1491 62.0638C47.1344 63.029 47.1344 64.0526 46.8859 65.3397C46.6374 66.6268 46.1401 68.1768 45.7745 69.3177C45.409 70.4584 45.1749 71.1898 44.7509 71.9209C44.3267 72.6521 43.7123 73.3835 43.2297 73.5589C42.7471 73.7344 42.3962 73.3539 42.1768 72.7105C41.9573 72.0671 41.8698 71.1602 41.8261 70.0195C41.7821 68.8786 41.7821 67.504 41.7091 65.9538C41.6357 64.4035 41.4894 62.6776 41.1971 61.186C40.9043 59.6944 40.466 58.4364 39.9978 57.1352C39.5298 55.8335 39.0325 54.4877 38.7547 52.806C38.4766 51.1241 38.4182 49.1061 38.4619 47.6145C38.5057 46.1227 38.652 45.1574 39.0909 44.3823C39.5295 43.6069 40.2607 43.0219 40.758 42.4225C41.2552 41.8228 41.5187 41.2088 41.6501 40.7701C41.7819 40.3312 41.7819 40.0678 40.9261 39.1466C40.0703 38.2253 38.359 36.646 36.5383 34.8912C34.7175 33.1365 32.787 31.206 31.4489 29.4803C30.1105 27.7543 29.365 26.2332 29.007 24.0832H29.0062Z" fill="#512934"/>
<path fill-rule="evenodd" clip-rule="evenodd" d="M28.651 131.715C29.2748 129.706 27.8709 127.054 27.2469 123.961C26.6229 120.867 26.7789 117.332 27.6132 113.955C28.4473 110.578 29.9603 107.359 32.9828 104.588C36.005 101.816 40.5374 99.492 44.5874 97.8179C48.6371 96.1435 52.2048 95.1191 58.7533 94.6069C65.3015 94.0949 74.8311 94.0949 82.5436 95.0316C90.2561 95.9686 96.152 97.842 101.149 100.259C106.146 102.675 110.244 105.635 112.584 108.521C114.924 111.406 115.506 114.218 115.114 117.841C114.723 121.465 113.358 125.9 112.714 128.118C112.071 130.336 112.149 130.336 114.996 131.939C117.843 133.542 123.459 136.747 127.144 138.535C130.83 140.323 132.584 140.693 134.164 141.439C135.743 142.184 137.147 143.304 138.473 145.11C139.8 146.915 141.047 149.406 141.808 151.997C142.569 154.588 142.841 157.279 143.075 159.268C143.31 161.257 143.504 162.544 143.563 163.09C143.621 163.636 143.543 163.441 119.539 163.344C95.535 163.246 47.6046 163.246 23.6881 163.162C-0.22889 163.078 -0.131999 162.911 0.0240734 161.546C0.180146 160.181 0.395138 157.618 1.0684 154.565C1.74139 151.512 2.87239 147.968 4.33491 145.636C5.79743 143.304 7.59122 142.184 10.7114 140.855C13.8312 139.527 18.2772 137.99 21.826 136.539C25.3748 135.088 28.027 133.723 28.651 131.715V131.715Z" fill="#FF993E"/>
<path fill-rule="evenodd" clip-rule="evenodd" d="M58.3139 103.423C57.4948 104.534 57.8656 107.44 57.1635 110.969C56.4615 114.499 54.6868 118.652 54.1214 120.953C53.5561 123.254 54.1995 123.703 55.6717 124.775C57.1439 125.848 59.4452 127.544 62.2309 128.656C65.0164 129.767 68.2871 130.294 71.6804 130.333C75.0733 130.372 78.5884 129.923 81.3312 128.89C84.0734 127.856 86.0429 126.237 87.2033 124.873C88.3636 123.507 88.7145 122.396 88.4319 120.612C88.1491 118.827 87.2323 116.37 86.6769 113.446C86.121 110.521 85.9261 107.127 84.5558 105.46C83.1854 103.793 80.6396 103.852 77.7732 103.978C74.9068 104.105 71.7196 104.3 69.229 104.261C66.7381 104.222 64.9444 103.949 63.0432 103.471C61.1421 102.993 59.1336 102.311 58.3144 103.423L58.3139 103.423Z" fill="#FDB9A4"/>
<path fill-rule="evenodd" clip-rule="evenodd" d="M58.3299 113.691C60.1677 113.78 63.8529 113.905 67.3334 113.607C70.8139 113.309 74.0901 112.587 76.7307 111.681C79.3711 110.775 81.3765 109.684 82.5745 108.616C83.7728 107.549 84.1641 106.504 84.3118 105.655C84.4594 104.806 84.3641 104.153 82.6345 104.139C80.9049 104.124 77.5415 104.748 73.4954 105.012C69.449 105.275 64.7202 105.177 62.0055 105.044C59.2905 104.91 58.5892 104.739 58.2244 104.747C57.8596 104.755 57.8311 104.942 57.7308 105.896C57.6305 106.85 57.4582 108.572 57.2958 109.787C57.1332 111.003 56.98 111.712 56.8698 112.149C56.7592 112.586 56.6914 112.75 56.6388 112.929C56.5856 113.108 56.5479 113.3 56.5244 113.424C56.5008 113.547 56.4916 113.601 58.3297 113.691H58.3299Z" fill="black" fill-opacity="0.2"/>
<path fill-rule="evenodd" clip-rule="evenodd" d="M105.575 59.266C106.959 60.5324 108.461 59.9068 109.933 60.1019C111.405 60.297 112.848 61.3125 113.618 63.006C114.389 64.6995 114.486 67.0712 114.184 69.6354C113.882 72.1996 113.18 74.9565 111.786 77.4956C110.391 80.0341 108.305 82.3545 106.306 83.6384C104.307 84.9223 102.396 85.1701 101.309 85.5603C100.222 85.9502 99.9589 86.4825 98.8303 88.6262C97.7016 90.7698 95.7075 94.5242 93.2994 97.7614C90.891 100.999 88.0692 103.718 85.2588 105.526C82.4485 107.334 79.6502 108.231 76.5303 108.501C73.4104 108.769 69.9692 108.411 66.9664 107.962C63.9633 107.514 61.3986 106.975 58.7124 105.161C56.0259 103.347 53.2182 100.256 51.2534 97.3843C49.2886 94.5121 48.1678 91.8587 46.9588 89.9009C45.7498 87.943 44.453 86.6803 43.1612 86.0492C41.8692 85.4181 40.5824 85.4181 39.2369 84.6605C37.8912 83.9029 36.4873 82.388 35.0054 79.3978C33.5232 76.4075 31.9636 71.9422 31.5734 68.6372C31.1835 65.3319 31.963 63.1869 33.453 61.821C34.9428 60.4549 37.1425 59.868 38.8391 60.5625C40.5355 61.257 41.7291 63.233 42.8129 62.3173C43.8971 61.4015 44.8717 57.5948 45.7689 54.5019C46.666 51.4087 47.4849 49.0299 48.899 47.3998C50.3125 45.7697 52.321 44.8883 54.6757 44.2058C57.0304 43.5234 59.7311 43.0395 64.8841 42.7001C70.0368 42.3607 77.6419 42.1659 83.321 42.1078C89.0001 42.0491 92.7539 42.1269 95.1618 42.5948C97.5699 43.0628 98.6326 43.9209 99.4907 45.5002C100.349 47.0796 101.002 49.3808 101.962 52.1108C102.923 54.8405 104.19 57.9994 105.575 59.266Z" fill="#FDB9A4"/>
<path fill-rule="evenodd" clip-rule="evenodd" d="M38.8419 68.9863C38.8809 68.8009 38.7735 68.1604 38.3933 67.3769C38.0131 66.5934 37.36 65.6672 36.814 65.2285C36.268 64.7896 35.8294 64.8384 35.7026 65.1356C35.5759 65.433 35.761 65.979 36.268 66.6031C36.7749 67.2271 37.6035 67.9289 38.1107 68.4149C38.6177 68.9009 38.8031 69.1715 38.8421 68.986L38.8419 68.9863Z" fill="#E99684"/>
<path fill-rule="evenodd" clip-rule="evenodd" d="M37.1177 71.7885C37.4796 71.5594 38.1647 71.2666 38.6863 71.1739C39.208 71.0812 39.5662 71.1886 39.7113 71.4177C39.8561 71.6466 39.7877 71.9977 39.3433 72.2512C38.8987 72.5047 38.0777 72.6605 37.5708 72.6605C37.0638 72.6605 36.8708 72.5044 36.7938 72.3436C36.7166 72.1826 36.7556 72.0171 37.1177 71.788V71.7885Z" fill="#E99684"/>
<path fill-rule="evenodd" clip-rule="evenodd" d="M107.764 68.5164C108.349 68.011 109.266 67.2113 109.958 66.9481C110.65 66.685 111.118 66.9578 111.167 67.4635C111.216 67.9686 110.845 68.7066 110.133 69.2426C109.422 69.7789 108.369 70.1133 107.735 70.1133C107.101 70.1133 106.887 69.7786 106.906 69.5058C106.926 69.2326 107.179 69.0216 107.764 68.5164H107.764Z" fill="#E99684"/>
<path fill-rule="evenodd" clip-rule="evenodd" d="M106.551 72.5164C107.16 72.105 108.379 71.6561 109.163 71.5391C109.948 71.422 110.299 71.6368 110.206 72.0482C110.112 72.4593 109.575 73.0681 108.791 73.3724C108.006 73.6764 106.974 73.6764 106.458 73.4895C105.942 73.3022 105.942 72.9275 106.551 72.5164H106.551Z" fill="#E99684"/>
<path fill-rule="evenodd" clip-rule="evenodd" d="M54.6023 114.784C53.3645 114.231 50.8687 113.364 48.709 112.784C46.5494 112.204 44.7261 111.911 43.5267 111.955C42.3274 111.999 41.752 112.379 41.8398 112.803C41.9275 113.227 42.6783 113.695 44.3553 114.095C46.0322 114.495 48.6357 114.826 50.5905 115.333C52.5454 115.84 53.8521 116.523 54.5455 116.827C55.2387 117.131 55.3188 117.057 55.4256 116.824C55.532 116.592 55.6652 116.201 55.7422 115.887C55.8192 115.573 55.8399 115.336 54.6023 114.784Z" fill="#D9711A"/>
<path fill-rule="evenodd" clip-rule="evenodd" d="M56.9163 110.362C56.694 109.809 56.2331 108.87 55.6276 108.104C55.0222 107.338 54.272 106.743 53.6626 106.353C53.0535 105.963 52.5853 105.778 52.2197 105.792C51.8541 105.807 51.591 106.021 51.5423 106.28C51.4936 106.538 51.6591 106.841 52.2003 107.296C52.7413 107.751 53.6579 108.359 54.3159 108.929C54.9738 109.5 55.3731 110.032 55.7379 110.628C56.1024 111.224 56.4323 111.883 56.6282 112.112C56.8244 112.342 56.8862 112.142 56.9435 111.927C57.0009 111.711 57.053 111.481 57.0875 111.282C57.1218 111.083 57.1383 110.915 56.916 110.361L56.9163 110.362Z" fill="#D9711A"/>
<path fill-rule="evenodd" clip-rule="evenodd" d="M49.0473 128.583C50.5098 129.938 53.4348 132.201 57.0617 134.151C60.6885 136.101 65.0174 137.738 69.8146 138.723C74.6114 139.708 79.8762 140.039 83.552 139.932C87.2279 139.825 89.3142 139.279 90.4161 138.684C91.5178 138.089 91.6348 137.446 91.3227 137.115C91.0105 136.783 90.2697 136.764 88.9729 137.046C87.6762 137.329 85.8235 137.914 82.967 138.119C80.1103 138.323 76.2494 138.148 72.5445 137.573C68.8396 136.997 65.2903 136.023 61.9853 134.628C58.68 133.234 55.6188 131.421 53.2591 129.968C50.8997 128.515 49.2421 127.423 48.4136 127.102C47.5847 126.78 47.5847 127.228 49.047 128.584L49.0473 128.583Z" fill="#D9711A"/>
<path fill-rule="evenodd" clip-rule="evenodd" d="M69.2097 146.884C67.8056 146.396 67.2596 145.753 67.4783 145.295C67.6969 144.836 68.6802 144.563 70.3085 144.661C71.9368 144.758 74.2098 145.226 76.5456 145.217C78.8815 145.207 81.2802 144.719 83.7784 143.94C86.2766 143.16 88.8746 142.087 90.4638 141.532C92.0531 140.976 92.6334 140.937 92.8455 141.297C93.0579 141.658 92.9018 142.419 91.4296 143.511C89.9574 144.602 87.1688 146.026 84.234 146.835C81.2993 147.645 78.2182 147.839 75.5469 147.771C72.8753 147.703 70.6133 147.371 69.2095 146.884L69.2097 146.884Z" fill="#D9711A"/>
<path fill-rule="evenodd" clip-rule="evenodd" d="M51.7208 163.22C51.6014 163.22 51.3993 163.22 51.1361 163.22C50.8727 163.219 50.5485 163.219 50.1818 163.218C49.815 163.218 49.4052 163.217 49.1116 163.217C48.8178 163.216 48.64 163.216 48.5509 163.216C48.4619 163.216 48.4619 163.216 48.4619 159.338C48.4619 155.461 48.4619 147.706 48.4912 143.577C48.5203 139.447 48.579 138.944 48.8228 138.507C49.0666 138.07 49.4955 137.7 49.9538 137.573C50.412 137.446 50.8996 137.563 51.2215 138C51.543 138.437 51.6991 139.194 51.7478 142.109C51.7963 145.024 51.7381 150.098 51.7478 153.977C51.7572 157.855 51.835 160.538 51.856 161.879C51.8766 163.221 51.84 163.221 51.7206 163.221L51.7208 163.22Z" fill="#FFF9D6"/>
<path fill-rule="evenodd" clip-rule="evenodd" d="M97.7008 163.22C97.5814 163.22 97.3792 163.22 97.1161 163.22C96.8526 163.219 96.5284 163.219 96.1618 163.218C95.795 163.218 95.3851 163.217 95.0916 163.217C94.7978 163.216 94.62 163.216 94.5309 163.216C94.4419 163.216 94.4419 163.216 94.4419 159.338C94.4419 155.461 94.4419 147.706 94.4712 143.577C94.5003 139.447 94.5589 138.944 94.8027 138.507C95.0465 138.07 95.4755 137.7 95.9337 137.573C96.392 137.446 96.8796 137.563 97.2014 138C97.523 138.437 97.6791 139.194 97.7278 142.109C97.7762 145.024 97.7181 150.098 97.7278 153.977C97.7372 157.855 97.815 160.538 97.8359 161.879C97.8566 163.221 97.82 163.221 97.7006 163.221L97.7008 163.22Z" fill="#FFF9D6"/>
<path fill-rule="evenodd" clip-rule="evenodd" d="M54.2117 62.065C54.0069 61.4504 54.0797 60.6755 54.4162 59.9808C54.7527 59.2858 55.3524 58.6717 56.7782 57.9039C58.2041 57.1361 60.4561 56.2149 61.999 55.7689C63.542 55.3227 64.3755 55.352 64.9971 55.5715C65.6188 55.7906 66.0281 56.2002 66.2842 56.8072C66.5403 57.414 66.6424 58.2181 66.3499 58.8765C66.0572 59.5345 65.37 60.0465 64.5805 60.3026C63.7907 60.5584 62.8983 60.5584 62.0577 60.6535C61.2166 60.7486 60.4271 60.9384 59.6226 61.2312C58.8182 61.5237 57.999 61.9186 57.2899 62.3281C56.5805 62.7374 55.9808 63.1616 55.4398 63.1472C54.8985 63.1323 54.4159 62.6793 54.2114 62.065H54.2117Z" fill="#512934"/>
<path fill-rule="evenodd" clip-rule="evenodd" d="M93.5991 62.065C93.8038 61.4504 93.731 60.6755 93.3945 59.9808C93.058 59.2858 92.4584 58.6717 91.0325 57.9039C89.6066 57.1361 87.3546 56.2149 85.8117 55.7689C84.2688 55.3227 83.4352 55.352 82.8136 55.5715C82.1919 55.7906 81.7826 56.2002 81.5265 56.8072C81.2704 57.414 81.1683 58.2181 81.4608 58.8765C81.7535 59.5345 82.4407 60.0465 83.2302 60.3026C84.02 60.5584 84.9124 60.5584 85.753 60.6535C86.5941 60.7486 87.3837 60.9384 88.1881 61.2312C88.9926 61.5237 89.8117 61.9186 90.5208 62.3281C91.2302 62.7374 91.8299 63.1616 92.3709 63.1472C92.9122 63.1323 93.3948 62.6793 93.5993 62.065H93.5991Z" fill="#512934"/>
<path d="M62.4318 73.6771C63.6022 73.6771 64.5511 71.7817 64.5511 69.4436C64.5511 67.1054 63.6022 65.21 62.4318 65.21C61.2613 65.21 60.3125 67.1054 60.3125 69.4436C60.3125 71.7817 61.2613 73.6771 62.4318 73.6771Z" fill="#512934"/>
<path d="M85.2462 73.6771C86.4167 73.6771 87.3655 71.7817 87.3655 69.4436C87.3655 67.1054 86.4167 65.21 85.2462 65.21C84.0758 65.21 83.127 67.1054 83.127 69.4436C83.127 71.7817 84.0758 73.6771 85.2462 73.6771Z" fill="#512934"/>
<path d="M54.3289 80.8715C58.3512 80.8715 61.6119 79.4572 61.6119 77.7126C61.6119 75.968 58.3512 74.5537 54.3289 74.5537C50.3066 74.5537 47.0459 75.968 47.0459 77.7126C47.0459 79.4572 50.3066 80.8715 54.3289 80.8715Z" fill="#FF9D93"/>
<path d="M92.4119 80.8715C96.4342 80.8715 99.695 79.4572 99.695 77.7126C99.695 75.968 96.4342 74.5537 92.4119 74.5537C88.3896 74.5537 85.1289 75.968 85.1289 77.7126C85.1289 79.4572 88.3896 80.8715 92.4119 80.8715Z" fill="#FF9D93"/>
<path fill-rule="evenodd" clip-rule="evenodd" d="M73.4491 72.6712C73.4881 74.2021 73.2386 77.5369 73.016 79.6138C72.7936 81.6904 72.5986 82.5087 72.5402 83.0835C72.4815 83.6586 72.5595 83.9901 73.2126 84.0487C73.8657 84.1071 75.0947 83.8924 75.7868 83.9704C76.4789 84.0485 76.635 84.419 75.8845 84.7702C75.1337 85.1208 73.4761 85.4526 72.394 85.4136C71.3117 85.3746 70.8048 84.965 70.8828 83.0935C70.9608 81.2219 71.6236 77.8878 72.0332 75.7431C72.4425 73.5982 72.5986 72.6421 72.8405 72.0275C73.0822 71.4129 73.4098 71.1401 73.4488 72.6712H73.4491Z" fill="#E99684"/>
<path fill-rule="evenodd" clip-rule="evenodd" d="M66.1325 91.3521C67.0805 91.4592 68.6603 91.986 70.4737 92.2102C72.2869 92.4344 74.3344 92.3563 76.1769 91.9957C78.0197 91.6349 79.6579 90.9912 80.7824 90.4159C81.9065 89.8406 82.5167 89.3336 82.9265 89.2265C83.3358 89.1191 83.5445 89.4116 83.2295 89.987C82.9145 90.5623 82.076 91.4202 80.8476 92.1419C79.6189 92.8633 78.0006 93.448 76.2735 93.7699C74.5463 94.0917 72.7111 94.1501 71.0344 94.043C69.3574 93.9359 67.8388 93.6628 66.7851 93.2729C65.7311 92.8829 65.1411 92.3757 65.0049 91.9664C64.8682 91.5568 65.1851 91.245 66.133 91.3521H66.1325Z" fill="#F2A18E"/>
<path fill-rule="evenodd" clip-rule="evenodd" d="M71.7552 97.8792C72.2231 97.8792 73.5712 97.8792 74.6355 97.7941C75.6994 97.7087 76.4793 97.5377 76.9959 97.3939C77.5128 97.2502 77.7661 97.1331 77.9418 97.1721C78.1172 97.2112 78.2149 97.4062 77.8053 97.6597C77.3958 97.9132 76.479 98.2251 75.4457 98.2715C74.4124 98.3175 73.2615 98.0984 72.4806 97.9889C71.6992 97.8792 71.2872 97.8792 71.7552 97.8792Z" fill="#E99684"/>
</svg>
