<svg width="152" height="149" viewBox="0 0 152 149" fill="none" xmlns="http://www.w3.org/2000/svg">
<path fill-rule="evenodd" clip-rule="evenodd" d="M32.9663 108.381C32.9663 95.8047 32.4872 72.4095 33.6052 55.8644C34.723 39.319 37.4378 29.6239 41.1911 22.1419C44.9447 14.6596 49.7357 9.39005 55.485 5.94773C61.2349 2.50487 67.9431 0.888731 72.3348 0.291945C76.727 -0.305388 78.8029 0.116098 81.2786 0.643414C83.7544 1.17018 86.6286 1.80253 90.1823 3.94571C93.7356 6.08834 97.9681 9.74127 101.841 14.2379C105.714 18.7341 109.227 24.0739 111.822 31.5209C114.418 38.9678 116.095 48.5225 117.253 64.2246C118.411 79.9264 119.049 101.776 119.209 112.877C119.369 123.977 119.05 124.328 110.863 124.609C102.676 124.89 86.6218 125.101 72.1677 125.066C57.7141 125.031 44.8613 124.75 38.6741 123.732C32.4874 122.713 32.9663 120.956 32.9663 108.381Z" fill="#FFEDD7"/>
<path fill-rule="evenodd" clip-rule="evenodd" d="M90.1389 87.4242C90.557 87.4559 90.5603 87.5055 90.5683 87.6307C90.5762 87.756 90.589 87.9573 90.7367 90.2517C90.8844 92.5461 91.1664 96.934 91.3078 99.2256C91.4489 101.517 91.4489 101.713 98.3369 105.158C105.225 108.604 119.001 115.301 128.162 119.798C137.323 124.295 141.869 126.592 144.924 130.454C147.979 134.315 149.543 139.741 150.423 142.991C151.303 146.242 151.498 147.317 151.596 147.855C151.694 148.393 151.694 148.393 126.399 148.393C101.104 148.393 50.5136 148.393 25.2189 148.393C-0.0764153 148.393 -0.0764173 148.393 0.192437 147C0.461291 145.607 0.998998 142.82 2.0498 139.423C3.1006 136.026 4.66477 132.018 7.01117 129.061C9.35728 126.103 12.4853 124.197 18.8399 121.069C25.194 117.941 34.7745 113.591 41.7907 110.267C48.8067 106.943 53.2582 104.646 55.8002 103.13C58.3418 101.615 58.9736 100.882 59.6924 98.1631C60.4109 95.4445 61.2169 90.7399 61.6318 88.3164C62.0467 85.8932 62.0711 85.7504 63.1383 86.4913C64.2055 87.2322 66.3153 88.8571 69.3758 89.8601C72.436 90.8633 76.4461 91.2451 79.8502 90.8982C83.2542 90.5512 86.0516 89.4758 87.3177 88.7655C88.5837 88.0549 88.319 87.7095 88.6029 87.5438C88.887 87.378 89.7204 87.3925 90.1386 87.4242H90.1389Z" fill="#FFB7A0"/>
<path fill-rule="evenodd" clip-rule="evenodd" d="M90.1788 91.1845C89.5998 91.7966 88.4396 92.9803 85.7923 94.112C83.1451 95.2435 79.0108 96.3231 75.08 96.6999C71.1492 97.0766 67.4224 96.7505 64.9896 96.4554C62.5565 96.1603 61.4177 95.8958 60.8501 95.756C60.2823 95.616 60.2853 95.601 60.5903 94.0114C60.8947 92.4218 61.5008 89.2584 61.8041 87.5449C62.1069 85.8314 62.1069 85.568 63.8179 85.9761C65.5284 86.3839 68.95 87.4634 72.1579 88.2705C75.3655 89.0774 78.3593 89.6124 81.0648 89.4455C83.77 89.2787 86.1864 88.4105 87.6223 87.7353C89.058 87.0597 89.5131 86.5772 89.8322 86.336C90.1514 86.0948 90.3347 86.0948 90.4479 86.5548C90.5609 87.0149 90.6038 87.9349 90.6399 88.619C90.6757 89.303 90.7045 89.7505 90.7222 90.0231C90.7397 90.2958 90.7458 90.3932 90.7501 90.4621C90.7545 90.5311 90.7572 90.5718 90.1788 91.1839V91.1845Z" fill="black" fill-opacity="0.2"/>
<path fill-rule="evenodd" clip-rule="evenodd" d="M34.6395 46.8709C35.1384 46.3919 35.9734 45.7402 37.1752 45.3838C38.3767 45.0272 39.9452 44.9662 41.1366 45.1905C42.328 45.4145 43.1422 45.9234 43.3971 47.675C43.6517 49.4265 43.3462 52.4203 43.2341 54.7013C43.1222 56.9823 43.2037 58.5506 43.4991 59.3142C43.7942 60.0778 44.3035 60.0371 45.3524 59.2634C46.4013 58.4893 47.9895 56.9823 48.7944 55.4958C49.5988 54.0088 49.619 52.5425 49.2424 51.0153C48.8655 49.4875 48.0915 47.8992 47.7961 46.5651C47.5007 45.2312 47.6843 44.1514 48.7537 43.0722C49.8228 41.9929 51.7778 40.9131 53.2648 39.8339C54.7516 38.7546 55.7699 37.6749 57.0326 35.954C58.2954 34.2328 59.8024 31.8706 62.0019 30.7095C64.2015 29.5485 67.0935 29.5893 68.8144 29.2126C70.5352 28.8358 71.0853 28.0412 71.7067 26.9313C72.3278 25.8212 73.02 24.3957 73.6518 23.5609C74.2831 22.7257 74.8533 22.4814 75.3013 22.7563C75.7493 23.0312 76.0751 23.8257 76.8387 24.8032C77.6023 25.7807 78.8044 26.9418 80.5354 27.5528C82.2664 28.1638 84.5272 28.2248 86.2278 28.2349C87.9285 28.245 89.069 28.2045 89.9653 28.5811C90.8615 28.9577 91.513 29.7522 91.961 30.75C92.409 31.7477 92.6535 32.9498 92.9998 34.0597C93.3458 35.1696 93.794 36.1876 94.2524 36.9616C94.7105 37.7356 95.1791 38.2651 95.8308 38.7743C96.4823 39.2833 97.3176 39.7718 98.3055 40.2813C99.2931 40.7903 100.433 41.3198 101.106 42.4606C101.778 43.6011 101.981 45.3527 101.859 46.8394C101.737 48.3262 101.289 49.5479 101.075 50.7598C100.861 51.9717 100.882 53.1735 101.106 54.2935C101.33 55.4135 101.757 56.4525 102.318 57.2977C102.878 58.1428 103.57 58.7946 104.14 59.1613C104.711 59.5278 105.159 59.6093 105.597 59.1613C106.034 58.7133 106.462 57.7356 106.605 56.5239C106.747 55.312 106.605 53.8663 106.462 52.5729C106.319 51.2795 106.177 50.139 106.279 49.1005C106.38 48.0617 106.727 47.125 107.593 46.4429C108.458 45.7605 109.843 45.3327 110.994 45.2209C112.145 45.1087 113.061 45.3122 114.069 45.7908C115.077 46.2695 116.177 47.0232 116.9 48.0822C117.623 49.141 117.969 50.5057 118.051 51.748C118.132 52.9902 117.949 54.1105 117.511 55.1698C117.073 56.2286 116.381 57.2268 115.556 58.2757C114.731 59.3246 113.774 60.4241 112.979 61.2897C112.185 62.1551 111.553 62.7866 110.586 63.7237C109.619 64.6607 108.316 65.9029 107.44 66.524C106.564 67.1454 106.116 67.1454 105.668 67.1047C105.22 67.0639 104.772 66.9824 104.507 67.166C104.242 67.3492 104.161 67.7972 103.112 70.2412C102.063 72.685 100.047 77.125 98.4384 79.9966C96.8294 82.8684 95.6276 84.1716 94.4773 85.261C93.3263 86.3506 92.2269 87.2266 90.6381 88.3059C89.0493 89.3851 86.9723 90.6684 84.6505 91.7072C82.3287 92.7457 79.7622 93.5402 77.6037 93.9275C75.4447 94.3143 73.6934 94.2937 71.6974 93.9781C69.7013 93.6625 67.4611 93.0515 64.6916 91.5953C61.9215 90.1392 58.622 87.8377 56.3106 85.7705C53.9989 83.7034 52.6749 81.8703 51.28 79.2942C49.8849 76.7175 48.4186 73.3977 47.268 71.0254C46.1171 68.6524 45.2818 67.227 44.3656 66.4023C43.4491 65.5775 42.451 65.3532 41.3614 64.8239C40.2718 64.2944 39.0908 63.4592 38.1032 62.227C37.1153 60.9946 36.3207 59.3656 35.5776 57.4612C34.8342 55.5568 34.1417 53.3775 33.8565 51.7482C33.5712 50.1187 33.6934 49.0395 33.8359 48.347C33.9784 47.6545 34.1414 47.3492 34.64 46.8706L34.6395 46.8709Z" fill="#FDBAA0"/>
<path fill-rule="evenodd" clip-rule="evenodd" d="M56.9402 44.1315C57.1235 43.6835 58.4065 42.4617 59.8016 41.5044C61.1965 40.5469 62.7035 39.8544 64.1293 39.3965C65.5551 38.9381 66.8993 38.7142 67.8465 38.7547C68.7934 38.7954 69.3434 39.1009 69.5879 39.7324C69.8321 40.3637 69.7711 41.3212 69.5674 41.9117C69.3636 42.5022 69.0174 42.7265 67.8055 42.8487C66.5936 42.971 64.5166 42.9912 62.8364 43.1542C61.156 43.3172 59.873 43.6227 58.7735 43.9384C57.6738 44.254 56.757 44.58 56.9405 44.1317L56.9402 44.1315Z" fill="#FFEDD7"/>
<path fill-rule="evenodd" clip-rule="evenodd" d="M94.713 44.1315C94.5298 43.6835 93.2468 42.4617 91.8516 41.5044C90.4567 40.5469 88.9497 39.8544 87.524 39.3965C86.0982 38.9381 84.7539 38.7142 83.8068 38.7547C82.8599 38.7954 82.3099 39.1009 82.0654 39.7324C81.8211 40.3637 81.8821 41.3212 82.0859 41.9117C82.2896 42.5022 82.6359 42.7265 83.8478 42.8487C85.0597 42.971 87.1367 42.9912 88.8168 43.1542C90.4972 43.3172 91.7802 43.6227 92.8797 43.9384C93.9795 44.254 94.8963 44.58 94.7127 44.1317L94.713 44.1315Z" fill="#FFEDD7"/>
<path d="M63.3322 56.0849C64.4794 56.0849 65.4094 54.2248 65.4094 51.9302C65.4094 49.6356 64.4794 47.7754 63.3322 47.7754C62.1849 47.7754 61.2549 49.6356 61.2549 51.9302C61.2549 54.2248 62.1849 56.0849 63.3322 56.0849Z" fill="#803C3B"/>
<path d="M87.6495 56.0849C88.7968 56.0849 89.7268 54.2248 89.7268 51.9302C89.7268 49.6356 88.7968 47.7754 87.6495 47.7754C86.5023 47.7754 85.5723 49.6356 85.5723 51.9302C85.5723 54.2248 86.5023 56.0849 87.6495 56.0849Z" fill="#803C3B"/>
<path d="M55.9885 65.8354C60.1896 65.8354 63.5952 64.3583 63.5952 62.5361C63.5952 60.714 60.1896 59.2368 55.9885 59.2368C51.7875 59.2368 48.3818 60.714 48.3818 62.5361C48.3818 64.3583 51.7875 65.8354 55.9885 65.8354Z" fill="#E99684"/>
<path d="M95.7629 65.8354C99.964 65.8354 103.37 64.3583 103.37 62.5361C103.37 60.714 99.964 59.2368 95.7629 59.2368C91.5619 59.2368 88.1562 60.714 88.1562 62.5361C88.1562 64.3583 91.5619 65.8354 95.7629 65.8354Z" fill="#E99684"/>
<path fill-rule="evenodd" clip-rule="evenodd" d="M75.958 57.2698C75.9988 58.8687 75.7381 62.3518 75.5057 64.521C75.2734 66.6899 75.0697 67.5446 75.0087 68.1449C74.9474 68.7455 75.0289 69.0918 75.7111 69.153C76.3932 69.214 77.6767 68.9898 78.3996 69.0713C79.1225 69.1528 79.2855 69.5398 78.5016 69.9066C77.7175 70.2728 75.9862 70.6193 74.8561 70.5786C73.7257 70.5378 73.1962 70.11 73.2777 68.1553C73.3592 66.2006 74.0514 62.7183 74.4792 60.4783C74.9067 58.2381 75.0697 57.2395 75.3224 56.5976C75.5749 55.9557 75.917 55.6707 75.9578 57.2698H75.958Z" fill="#E99684"/>
<path fill-rule="evenodd" clip-rule="evenodd" d="M68.3158 76.7815C69.3059 76.8934 70.956 77.4436 72.85 77.6778C74.7437 77.9119 76.8822 77.8304 78.8066 77.4538C80.7313 77.0769 82.4423 76.4046 83.6167 75.8037C84.7909 75.2028 85.4281 74.6733 85.8562 74.5615C86.2837 74.4493 86.5016 74.7548 86.1726 75.3557C85.8436 75.9566 84.9678 76.8526 83.6848 77.6064C82.4016 78.3599 80.7113 78.9706 78.9075 79.3068C77.1035 79.6429 75.1868 79.7039 73.4355 79.592C71.684 79.4801 70.098 79.1949 68.9974 78.7876C67.8965 78.3804 67.2803 77.8506 67.1381 77.4231C66.9953 76.9953 67.3263 76.6696 68.3164 76.7815H68.3158Z" fill="#E99684"/>
<path fill-rule="evenodd" clip-rule="evenodd" d="M74.1888 83.5999C74.6775 83.5999 76.0855 83.5999 77.197 83.511C78.3083 83.4219 79.1228 83.2433 79.6624 83.0931C80.2023 82.943 80.4668 82.8207 80.6503 82.8614C80.8336 82.9022 80.9356 83.106 80.5078 83.3707C80.0801 83.6355 79.1225 83.9612 78.0433 84.0096C76.964 84.0578 75.762 83.8288 74.9464 83.7145C74.1303 83.5999 73.7 83.5999 74.1888 83.5999Z" fill="#E99684"/>
<path fill-rule="evenodd" clip-rule="evenodd" d="M39.0487 50.6906C39.5131 50.8798 40.2461 51.344 40.8084 51.9673C41.3705 52.5906 41.7613 53.3728 41.8653 54.0938C41.9692 54.8145 41.7857 55.4747 41.1503 55.8352C40.515 56.1954 39.4275 56.2567 38.8469 56.1101C38.2662 55.9632 38.1932 55.609 38.4741 55.2608C38.755 54.9124 39.3906 54.5705 39.7144 54.2653C40.038 53.9595 40.0506 53.6906 39.8613 53.3118C39.6718 52.933 39.2804 52.4446 38.9691 51.9862C38.6573 51.5278 38.4254 51.1003 38.4071 50.8437C38.3888 50.5869 38.584 50.5016 39.0487 50.6911V50.6906Z" fill="#E99684"/>
<path fill-rule="evenodd" clip-rule="evenodd" d="M111.421 53.8859C111.586 54.0202 111.659 54.2157 111.421 54.5762C111.183 54.9367 110.633 55.4621 110.083 55.731C109.533 55.9998 108.983 56.0121 108.653 55.7799C108.323 55.5477 108.213 55.071 108.158 54.6251C108.103 54.1791 108.103 53.7634 108.335 53.2013C108.567 52.639 109.032 51.9306 109.765 51.3193C110.498 50.7083 111.5 50.1952 112.215 50.1279C112.93 50.0606 113.358 50.4394 113.248 50.8366C113.138 51.2337 112.49 51.6495 111.91 52.0343C111.329 52.4191 110.816 52.7732 110.633 53.0298C110.449 53.2863 110.596 53.4456 110.798 53.5615C110.999 53.6778 111.256 53.7508 111.421 53.8853L111.421 53.8859Z" fill="#E99684"/>
<path d="M40.3998 68.0268C41.9878 68.0268 43.2751 66.5496 43.2751 64.7275C43.2751 62.9053 41.9878 61.4282 40.3998 61.4282C38.8117 61.4282 37.5244 62.9053 37.5244 64.7275C37.5244 66.5496 38.8117 68.0268 40.3998 68.0268Z" fill="#B3B3B3"/>
<path d="M107.44 68.0268C109.028 68.0268 110.315 66.5496 110.315 64.7275C110.315 62.9053 109.028 61.4282 107.44 61.4282C105.852 61.4282 104.564 62.9053 104.564 64.7275C104.564 66.5496 105.852 68.0268 107.44 68.0268Z" fill="#B3B3B3"/>
<path fill-rule="evenodd" clip-rule="evenodd" d="M24.8414 119.537C25.4685 120.592 26.76 122.686 27.8294 126.244C28.8988 129.802 29.7453 134.825 30.0957 138.76C30.4457 142.695 30.2991 145.542 30.2502 146.966C30.2012 148.389 30.2502 148.389 45.2562 148.389C60.262 148.389 90.2249 148.389 105.329 148.389C120.432 148.389 120.677 148.389 120.945 146.638C121.214 144.886 121.508 141.383 122.265 137.463C123.023 133.543 124.245 129.206 125.305 126.192C126.365 123.178 127.264 121.486 127.595 120.583C127.927 119.679 127.692 119.564 123.265 117.394C118.839 115.225 110.222 111.002 105.855 108.862C101.487 106.721 101.369 106.663 101.069 107.971C100.769 109.278 100.287 111.952 98.9306 114.57C97.5737 117.189 95.3428 119.751 92.7767 121.978C90.2105 124.206 87.3094 126.098 84.026 127.045C80.7426 127.991 77.0762 127.991 73.655 127.719C70.2334 127.446 67.0562 126.902 63.7569 124.967C60.4576 123.033 57.0361 119.709 54.7146 116.752C52.3928 113.795 51.1705 111.204 50.4129 109.494C49.6553 107.783 49.3618 106.952 49.1813 106.655C49.0005 106.357 48.933 106.593 45.1452 108.487C41.3572 110.38 33.8492 113.929 29.7863 115.835C25.7234 117.741 25.1053 118.002 24.7634 118.164C24.4215 118.325 24.3554 118.385 24.3034 118.424C24.2517 118.463 24.214 118.481 24.8414 119.537Z" fill="#02CCC0"/>
<path fill-rule="evenodd" clip-rule="evenodd" d="M58.4892 131.93C59.5033 132.737 61.8741 134.203 65.1367 135.401C68.3993 136.598 72.5541 137.527 76.3178 137.796C80.0815 138.065 83.4543 137.674 86.729 136.94C90.0039 136.207 93.1812 135.132 94.33 134.313C95.4787 133.494 94.5988 132.932 93.3158 132.969C92.0328 133.006 90.3464 133.641 88.2201 134.264C86.0939 134.888 83.5279 135.499 80.6441 135.731C77.76 135.963 74.5584 135.816 71.3693 135.254C68.1797 134.692 65.0024 133.714 62.8029 132.908C60.6031 132.101 59.3814 131.465 58.5994 131.221C57.8172 130.977 57.4753 131.124 58.4895 131.93H58.4892Z" fill="black" fill-opacity="0.2"/>
</svg>
