<svg width="149" height="152" viewBox="0 0 149 152" fill="none" xmlns="http://www.w3.org/2000/svg">
<path fill-rule="evenodd" clip-rule="evenodd" d="M8.53593 131.893C7.30713 129.142 6.34341 123.648 6.92181 118.781C7.49994 113.914 9.62019 109.673 13.4514 105.698C17.2826 101.723 22.8244 98.0147 27.1364 94.6775C31.4484 91.3403 34.5302 88.375 36.0713 85.335C37.6121 82.2946 37.612 79.1802 36.6014 73.9592C35.5905 68.738 33.5686 61.4102 32.5817 55.5343C31.5948 49.6581 31.6433 45.2334 33.0981 39.431C34.5526 33.6284 37.4141 26.4479 40.6912 20.7615C43.968 15.0751 47.6603 10.8824 51.9084 7.60556C56.1562 4.3285 60.9597 1.96718 66.8737 0.834646C72.7874 -0.297885 79.8123 -0.20162 85.5308 0.665845C91.2493 1.53331 95.6613 3.17198 99.4075 5.79837C103.154 8.42476 106.234 12.0389 108.86 16.3039C111.487 20.5687 113.659 25.4842 115.128 30.3171C116.597 35.1501 117.362 39.9005 117.695 44.1079C118.027 48.3152 117.926 51.9798 117.065 57.6351C116.204 63.2902 114.583 70.9362 114.083 76.7283C113.582 82.5206 114.201 86.4586 115.474 89.1098C116.748 91.761 118.675 93.1252 123.615 96.6673C128.554 100.209 136.506 105.929 140.795 111.469C145.084 117.009 145.71 122.37 145.252 126.707C144.795 131.044 143.252 134.358 139.638 136.497C136.024 138.635 130.337 139.599 121.475 137.942C112.614 136.285 100.577 132.008 88.6498 130.345C76.7224 128.683 64.9052 129.635 57.591 130.28C50.2767 130.925 47.4656 131.262 40.7432 131.941C34.0206 132.62 23.3864 133.64 17.3225 134.146C11.2583 134.652 9.76446 134.643 8.53567 131.892L8.53593 131.893Z" fill="#3C3441"/>
<path fill-rule="evenodd" clip-rule="evenodd" d="M42.7177 45.7911C42.8983 47.3691 42.8582 50.0874 43.2718 52.8441C43.6855 55.6004 44.5529 58.3956 45.1192 59.8774C45.6852 61.3591 45.9502 61.5279 46.5408 60.2506C47.1308 58.9732 48.0468 56.2506 48.5165 53.7959C48.9862 51.3413 49.0105 49.155 49.2756 48.0618C49.5406 46.9687 50.0465 46.9687 52.1158 46.6327C54.1851 46.2964 57.8178 45.6237 61.9863 43.9219C66.1546 42.2201 70.8592 39.4888 74.5318 37.0029C78.2042 34.5168 80.8454 32.276 82.8805 30.2401C84.9155 28.204 86.3449 26.3728 87.2334 25.7224C88.1219 25.0717 88.4695 25.6019 89.2895 27.2044C90.1098 28.8064 91.4022 31.481 92.844 34.0473C94.2856 36.6133 95.8757 39.0709 97.4421 40.6853C99.0083 42.2997 100.55 43.0706 101.418 43.591C102.285 44.1112 102.478 44.3808 102.623 46.2603C102.767 48.1398 102.863 51.629 103.297 54.2533C103.731 56.8772 104.502 58.6364 105.153 59.6724C105.803 60.7084 106.334 61.0218 106.728 60.1783C107.121 59.3348 107.379 57.3351 107.508 54.9406C107.637 52.5461 107.637 49.7577 107.833 47.9769C108.03 46.1961 108.423 45.4233 109.31 44.8662C110.198 44.3088 111.581 43.9669 112.846 43.9669C114.111 43.9669 115.258 44.3091 116.097 45.285C116.935 46.2606 117.466 47.8701 117.779 49.3497C118.092 50.829 118.189 52.1783 118.092 53.5638C117.996 54.9492 117.707 56.3706 117.394 57.6962C117.08 59.0215 116.743 60.2503 116.261 61.4432C115.779 62.6362 115.152 63.7927 114.442 64.8408C113.731 65.8889 112.935 66.8287 111.788 67.7684C110.639 68.7079 109.138 69.6476 108.054 70.3945C106.969 71.1415 106.302 71.6959 105.595 72.0933C104.888 72.4908 104.141 72.7319 103.575 73.2499C103.008 73.7679 102.623 74.5631 101.358 76.8281C100.093 79.0929 97.948 82.8281 95.7557 85.599C93.5629 88.37 91.3219 90.1769 88.7076 91.5141C86.0934 92.8515 83.1056 93.7188 79.7563 94.1647C76.407 94.6105 72.696 94.6345 69.5449 93.9959C66.3935 93.3574 63.8014 92.0561 61.103 90.0682C58.4043 88.0804 55.5986 85.406 53.4975 82.6952C51.3961 79.9844 49.9982 77.2374 48.9261 75.4063C47.8537 73.5751 47.1068 72.6591 45.5288 71.6473C43.9505 70.6353 41.5409 69.5273 39.4444 67.2019C37.3481 64.8767 35.5652 61.3343 34.6133 58.1778C33.6615 55.0212 33.5409 52.25 33.7939 50.0597C34.0468 47.8693 34.6735 46.26 35.6855 45.2119C36.6975 44.1635 38.0951 43.6773 39.1675 43.4581C40.2396 43.2386 40.9865 43.2871 41.5609 43.5301C42.1352 43.7733 42.5367 44.2118 42.7177 45.79V45.7911Z" fill="#FDBAA0"/>
<path fill-rule="evenodd" clip-rule="evenodd" d="M88.9199 91.4048L88.7079 91.5148C86.0937 92.8523 83.106 93.7195 79.7566 94.1655C76.4073 94.6112 72.6964 94.6352 69.5452 93.9967C66.3938 93.3582 63.8017 92.0568 61.1033 90.069C60.4572 89.593 59.8047 89.0775 59.1572 88.5317L59.1842 88.3796C59.2627 88.1596 59.3824 88.0986 59.6262 88.094C60.0673 88.0857 60.9151 88.2612 64.1973 88.3993C64.6446 88.4182 65.137 88.4362 65.6666 88.4527C67.772 89.6995 70.3741 90.7417 73.0205 91.0357C76.4601 91.4172 79.9734 90.5341 82.3566 90.0522C84.7395 89.5701 85.9917 89.4892 86.8692 88.9672C87.7464 88.4448 88.2487 87.4809 88.7007 89.9349C88.7756 90.341 88.8487 90.8404 88.9201 91.4053L88.9199 91.4048Z" fill="#FDBAA0"/>
<path fill-rule="evenodd" clip-rule="evenodd" d="M109.68 54.5344C110.234 53.9741 111.114 53.1549 111.795 52.4142C112.475 51.6732 112.957 51.0104 112.963 50.6553C112.969 50.2999 112.499 50.2516 111.728 50.6793C110.957 51.1069 109.885 52.0105 109.138 52.9926C108.391 53.9744 107.969 55.0346 107.764 55.7395C107.559 56.4444 107.572 56.7936 108.029 57.1309C108.487 57.4682 109.391 57.7934 110.258 57.7934C111.126 57.7934 111.957 57.4682 112.156 56.9683C112.355 56.4684 111.921 55.7934 111.235 55.5526C110.548 55.3116 109.608 55.5046 109.253 55.4504C108.897 55.396 109.126 55.0948 109.681 54.5347L109.68 54.5344Z" fill="#EC9F8B"/>
<path fill-rule="evenodd" clip-rule="evenodd" d="M40.8951 54.5344C40.3409 53.9741 39.4616 53.1549 38.7808 52.4142C38.1002 51.6732 37.6183 51.0104 37.6124 50.6553C37.6064 50.2999 38.0762 50.2516 38.8474 50.6793C39.6186 51.1069 40.6907 52.0105 41.4376 52.9926C42.1845 53.9744 42.6063 55.0346 42.8109 55.7395C43.0159 56.4444 43.0037 56.7936 42.5459 57.1309C42.0883 57.4682 41.1844 57.7934 40.3169 57.7934C39.4495 57.7934 38.6184 57.4682 38.4194 56.9683C38.2204 56.4684 38.6543 55.7934 39.3408 55.5526C40.0276 55.3116 40.9671 55.5046 41.3228 55.4504C41.6781 55.396 41.4492 55.0948 40.8948 54.5347L40.8951 54.5344Z" fill="#EC9F8B"/>
<path fill-rule="evenodd" clip-rule="evenodd" d="M44.7282 67.7218C44.4934 68.071 43.9994 68.3361 43.7103 68.9083C43.421 69.4805 43.3369 70.3601 43.5418 71.0045C43.7465 71.649 44.2404 72.0589 44.8852 72.0888C45.5296 72.1187 46.3246 71.7695 46.8005 71.6309C47.2764 71.4923 47.4331 71.5646 47.5353 71.7935C47.6378 72.0225 47.6858 72.4081 47.4811 72.8538C47.2762 73.2995 46.8183 73.8057 45.9991 73.9804C45.1796 74.1549 43.9989 73.9982 43.1921 73.4802C42.3847 72.9622 41.9511 72.0829 41.7767 71.2213C41.6019 70.3598 41.6861 69.5166 41.9873 68.7635C42.2885 68.0106 42.8067 67.3478 43.3306 66.9865C43.8546 66.6252 44.385 66.5648 44.6619 66.7516C44.9388 66.9382 44.9631 67.3721 44.728 67.7216L44.7282 67.7218Z" fill="white"/>
<path fill-rule="evenodd" clip-rule="evenodd" d="M106.273 67.7218C106.507 68.071 107.001 68.3361 107.291 68.9083C107.58 69.4805 107.664 70.3601 107.459 71.0045C107.254 71.649 106.76 72.0589 106.116 72.0888C105.471 72.1187 104.676 71.7695 104.2 71.6309C103.724 71.4923 103.568 71.5646 103.466 71.7935C103.363 72.0225 103.315 72.4081 103.52 72.8538C103.725 73.2995 104.183 73.8057 105.002 73.9804C105.821 74.1549 107.002 73.9982 107.809 73.4802C108.616 72.9622 109.05 72.0829 109.224 71.2213C109.399 70.3598 109.315 69.5166 109.014 68.7635C108.712 68.0106 108.194 67.3478 107.67 66.9865C107.146 66.6252 106.616 66.5648 106.339 66.7516C106.062 66.9382 106.038 67.3721 106.273 67.7216L106.273 67.7218Z" fill="white"/>
<path fill-rule="evenodd" clip-rule="evenodd" d="M76.0061 59.0408C76.0463 60.6172 75.7893 64.0512 75.5601 66.1898C75.3311 68.3281 75.1303 69.1707 75.0701 69.7626C75.0097 70.3548 75.0901 70.6962 75.7626 70.7566C76.4351 70.8167 77.7006 70.5956 78.4133 70.6759C79.126 70.7563 79.2866 71.1378 78.5138 71.4994C77.7407 71.8605 76.0339 72.2022 74.9197 72.162C73.8052 72.1218 73.2832 71.7001 73.3635 69.7729C73.4439 67.8457 74.1264 64.4125 74.5481 62.2041C74.9696 59.9954 75.1303 59.0109 75.3794 58.378C75.6283 57.7451 75.9656 57.4641 76.0058 59.0408H76.0061Z" fill="#EC9F8B"/>
<path fill-rule="evenodd" clip-rule="evenodd" d="M68.4711 78.2772C69.4473 78.3875 71.0741 78.9301 72.9414 79.1609C74.8085 79.3917 76.9169 79.3113 78.8141 78.94C80.7116 78.5685 82.3986 77.9057 83.5565 77.3132C84.7141 76.7208 85.3423 76.1988 85.7643 76.0885C86.1858 75.9779 86.4007 76.2791 86.0763 76.8715C85.752 77.464 84.8885 78.3473 83.6236 79.0905C82.3584 79.8334 80.692 80.4355 78.9136 80.7669C77.135 81.0983 75.2453 81.1584 73.5187 81.0482C71.7919 80.9379 70.2282 80.6566 69.1431 80.2551C68.0578 79.8536 67.4502 79.3313 67.31 78.9098C67.1693 78.4881 67.4955 78.1669 68.4717 78.2772H68.4711Z" fill="#EC9F8B"/>
<path fill-rule="evenodd" clip-rule="evenodd" d="M74.2611 84.9986C74.7429 84.9986 76.1311 84.9986 77.2269 84.9109C78.3225 84.823 79.1256 84.6469 79.6576 84.4989C80.1899 84.3509 80.4506 84.2303 80.6316 84.2705C80.8122 84.3107 80.9128 84.5116 80.4911 84.7726C80.0693 85.0336 79.1253 85.3548 78.0612 85.4025C76.9972 85.45 75.8121 85.2243 75.008 85.1115C74.2033 84.9986 73.7792 84.9986 74.2611 84.9986Z" fill="#EC9F8B"/>
<path d="M56.2659 62.9542C56.6851 62.9542 57.025 62.6975 57.025 62.3809C57.025 62.0643 56.6851 61.8076 56.2659 61.8076C55.8467 61.8076 55.5068 62.0643 55.5068 62.3809C55.5068 62.6975 55.8467 62.9542 56.2659 62.9542Z" fill="#E99684"/>
<path d="M60.0929 64.0997C60.7095 64.0997 61.2093 63.843 61.2093 63.5264C61.2093 63.2098 60.7095 62.9531 60.0929 62.9531C59.4764 62.9531 58.9766 63.2098 58.9766 63.5264C58.9766 63.843 59.4764 64.0997 60.0929 64.0997Z" fill="#E99684"/>
<path d="M63.8493 62.9542C64.2722 62.9542 64.6151 62.6975 64.6151 62.3809C64.6151 62.0643 64.2722 61.8076 63.8493 61.8076C63.4263 61.8076 63.0835 62.0643 63.0835 62.3809C63.0835 62.6975 63.4263 62.9542 63.8493 62.9542Z" fill="#E99684"/>
<path d="M57.0789 67.0728C57.6278 67.0728 58.0728 66.8162 58.0728 66.4995C58.0728 66.1829 57.6278 65.9263 57.0789 65.9263C56.53 65.9263 56.085 66.1829 56.085 66.4995C56.085 66.8162 56.53 67.0728 57.0789 67.0728Z" fill="#E99684"/>
<path d="M62.1462 68.312C62.6636 68.312 63.083 67.9064 63.083 67.406C63.083 66.9056 62.6636 66.5 62.1462 66.5C61.6289 66.5 61.2095 66.9056 61.2095 67.406C61.2095 67.9064 61.6289 68.312 62.1462 68.312Z" fill="#E99684"/>
<path d="M65.1891 66.4995C65.5063 66.4995 65.7634 66.3712 65.7634 66.2129C65.7634 66.0546 65.5063 65.9263 65.1891 65.9263C64.8719 65.9263 64.6147 66.0546 64.6147 66.2129C64.6147 66.3712 64.8719 66.4995 65.1891 66.4995Z" fill="#E99684"/>
<path d="M94.4207 62.9542C94.8399 62.9542 95.1797 62.6975 95.1797 62.3809C95.1797 62.0643 94.8399 61.8076 94.4207 61.8076C94.0015 61.8076 93.6616 62.0643 93.6616 62.3809C93.6616 62.6975 94.0015 62.9542 94.4207 62.9542Z" fill="#E99684"/>
<path d="M90.5939 64.0997C91.2104 64.0997 91.7102 63.843 91.7102 63.5264C91.7102 63.2098 91.2104 62.9531 90.5939 62.9531C89.9773 62.9531 89.4775 63.2098 89.4775 63.5264C89.4775 63.843 89.9773 64.0997 90.5939 64.0997Z" fill="#E99684"/>
<path d="M86.8376 62.9542C87.2605 62.9542 87.6034 62.6975 87.6034 62.3809C87.6034 62.0643 87.2605 61.8076 86.8376 61.8076C86.4147 61.8076 86.0718 62.0643 86.0718 62.3809C86.0718 62.6975 86.4147 62.9542 86.8376 62.9542Z" fill="#E99684"/>
<path d="M93.6072 67.0728C94.1561 67.0728 94.6011 66.8162 94.6011 66.4995C94.6011 66.1829 94.1561 65.9263 93.6072 65.9263C93.0583 65.9263 92.6133 66.1829 92.6133 66.4995C92.6133 66.8162 93.0583 67.0728 93.6072 67.0728Z" fill="#E99684"/>
<path d="M88.5403 68.312C89.0576 68.312 89.477 67.9064 89.477 67.406C89.477 66.9056 89.0576 66.5 88.5403 66.5C88.0229 66.5 87.6035 66.9056 87.6035 67.406C87.6035 67.9064 88.0229 68.312 88.5403 68.312Z" fill="#E99684"/>
<path d="M85.4977 66.4995C85.8149 66.4995 86.0721 66.3712 86.0721 66.2129C86.0721 66.0546 85.8149 65.9263 85.4977 65.9263C85.1805 65.9263 84.9233 66.0546 84.9233 66.2129C84.9233 66.3712 85.1805 66.4995 85.4977 66.4995Z" fill="#E99684"/>
<path fill-rule="evenodd" clip-rule="evenodd" d="M0.00591525 151.166C-0.0183533 151.128 -0.000824399 151.055 0.722108 148.041C1.44504 145.028 2.87311 139.073 4.28607 135.132C5.69877 131.191 7.09664 129.264 10.1806 127.457C13.2646 125.65 18.0355 123.963 26.0592 123.238C34.0827 122.512 45.3592 122.746 59.1176 123.276C72.8759 123.806 89.1164 124.631 100.606 124.59C112.095 124.549 118.833 123.641 124.375 124.02C129.917 124.399 134.262 126.064 137.564 128.108C140.865 130.152 143.122 132.575 144.881 136.487C146.64 140.399 147.901 145.799 148.339 148.5C148.776 151.201 148.391 151.201 124.03 151.214C99.67 151.227 51.3349 151.253 26.6943 151.254C2.05392 151.255 1.10797 151.23 0.602108 151.217C0.0962444 151.204 0.0299204 151.202 0.00565192 151.165L0.00591525 151.166Z" fill="#C72E31"/>
<path fill-rule="evenodd" clip-rule="evenodd" d="M44.919 111.508C43.3526 110.909 41.1749 110.737 37.0741 111.25C32.9732 111.762 26.9495 112.96 23.4559 114.02C19.9618 115.08 18.9981 116.003 18.9741 117.356C18.9501 118.709 19.8656 120.493 22.1549 125.938C24.4437 131.384 28.1063 140.492 30.2563 145.326C32.4059 150.159 33.0425 150.719 46.6084 150.999C60.1742 151.279 86.6682 151.279 99.9878 150.926C113.307 150.574 113.452 149.87 115.91 144.266C118.367 138.66 123.138 128.155 125.572 122.733C128.005 117.312 128.102 116.975 125.379 115.794C122.656 114.613 117.114 112.589 112.327 111.252C107.54 109.915 103.507 109.264 100.26 109.776C97.0128 110.288 94.5509 111.963 90.7647 115.227C86.9783 118.493 81.8676 123.348 76.5606 125.27C71.2539 127.192 65.7517 126.179 61.0247 123.838C56.2977 121.497 52.346 117.827 49.893 115.48C47.44 113.133 46.4852 112.108 44.919 111.509V111.508Z" fill="#FD5049"/>
<path fill-rule="evenodd" clip-rule="evenodd" d="M59.5424 86.7606C58.687 89.7367 58.2011 97.4754 57.6572 101.442C57.1131 105.407 56.5107 105.6 54.5347 106.443C52.559 107.287 49.2096 108.781 47.3339 109.588C45.4583 110.395 45.0565 110.516 46.0447 113.492C47.0327 116.467 49.4108 122.299 51.9253 127.6C54.4395 132.9 57.0899 137.671 59.6715 141.165C62.2532 144.659 64.7655 146.876 67.7125 148.49C70.6592 150.105 74.0409 151.117 77.2004 151.261C80.3594 151.406 83.2961 150.683 86.1803 148.458C89.0642 146.234 91.8955 142.507 94.0341 137.447C96.1725 132.387 97.6181 125.994 98.5578 121.111C99.4975 116.227 99.9311 112.854 100.196 111.095C100.462 109.336 100.558 109.191 99.4735 108.613C98.3893 108.035 96.1239 107.023 94.341 106.3C92.5581 105.577 91.2567 105.143 90.6063 104.83C89.9559 104.517 89.9559 104.324 89.7548 101.292C89.5536 98.2596 89.1516 92.3874 88.6996 89.9336C88.2474 87.4798 87.7454 88.4435 86.8682 88.9658C85.991 89.4879 84.7385 89.5687 82.3556 90.0509C79.9724 90.5327 76.4591 91.4161 73.0195 91.0343C69.5796 90.6527 66.2132 89.0057 63.9177 87.2889C61.6222 85.5717 60.3971 83.7848 59.5421 86.7609L59.5424 86.7606Z" fill="#FFB8A2"/>
<path fill-rule="evenodd" clip-rule="evenodd" d="M54.7918 108.515C55.6395 110.329 58.0157 113.665 60.4207 116.043C62.8257 118.421 65.2593 119.842 67.8447 120.839C70.4301 121.836 73.1671 122.409 76.3357 122.252C79.5044 122.095 83.1042 121.21 85.9043 119.611C88.7041 118.011 90.7043 115.698 92.0898 113.638C93.4752 111.578 94.2462 109.771 94.7084 108.669C95.1703 107.566 95.3237 107.169 95.2113 106.892C95.0988 106.615 94.7202 106.457 94.3263 106.298C93.9323 106.139 93.5227 105.977 93.262 106.218C93.0007 106.459 92.8885 107.103 92.254 108.389C91.6195 109.674 90.463 111.602 89.2943 113.228C88.1256 114.855 86.9451 116.18 85.2946 117.204C83.6438 118.228 81.5235 118.951 79.2348 119.373C76.9457 119.794 74.4878 119.915 72.1144 119.481C69.7406 119.048 67.4518 118.06 65.512 116.831C63.5721 115.602 61.9823 114.132 60.5364 112.47C59.0905 110.807 57.7895 108.952 57.0269 107.823C56.2638 106.694 56.0389 106.292 55.8418 106.128C55.6444 105.965 55.4745 106.041 55.0495 106.225C54.624 106.409 53.944 106.702 54.792 108.516L54.7918 108.515Z" fill="#FFF9D6"/>
<path fill-rule="evenodd" clip-rule="evenodd" d="M56.269 46.8406C56.269 46.4189 57.7629 44.8768 59.4016 43.8648C61.04 42.8525 62.8229 42.3709 64.5098 42.3348C66.1965 42.2984 67.7866 42.7082 68.7625 43.2141C69.7384 43.72 70.0999 44.3221 69.7866 44.5753C69.4733 44.8282 68.4853 44.7322 67.3889 44.5516C66.2925 44.3706 65.088 44.1053 63.7146 44.3102C62.341 44.5152 60.7989 45.1896 59.281 45.8766C57.7629 46.5634 56.269 47.2621 56.269 46.8406Z" fill="#3C3441"/>
<path fill-rule="evenodd" clip-rule="evenodd" d="M95.6309 46.8406C95.6309 46.4189 94.137 44.8768 92.4983 43.8648C90.8599 42.8525 89.077 42.3709 87.3901 42.3348C85.7034 42.2984 84.1133 42.7082 83.1374 43.2141C82.1616 43.72 81.8 44.3221 82.1133 44.5753C82.4266 44.8282 83.4146 44.7322 84.511 44.5516C85.6074 44.3706 86.812 44.1053 88.1853 44.3102C89.5589 44.5152 91.101 45.1896 92.6189 45.8766C94.137 46.5634 95.6309 47.2621 95.6309 46.8406Z" fill="#3C3441"/>
<path d="M63.4864 57.5749C64.7439 57.5749 65.7633 55.7627 65.7633 53.5272C65.7633 51.2917 64.7439 49.4795 63.4864 49.4795C62.2289 49.4795 61.2095 51.2917 61.2095 53.5272C61.2095 55.7627 62.2289 57.5749 63.4864 57.5749Z" fill="#3C3441"/>
<path d="M87.775 57.5749C89.0325 57.5749 90.0519 55.7627 90.0519 53.5272C90.0519 51.2917 89.0325 49.4795 87.775 49.4795C86.5174 49.4795 85.498 51.2917 85.498 53.5272C85.498 55.7627 86.5174 57.5749 87.775 57.5749Z" fill="#3C3441"/>
<path fill-rule="evenodd" clip-rule="evenodd" d="M49.9321 123.232C50.5701 124.683 51.2424 126.161 51.9254 127.601C54.4396 132.902 57.09 137.673 59.6716 141.167C62.2533 144.661 64.7656 146.878 67.7126 148.492C69.4367 149.436 71.31 150.175 73.2002 150.654C74.0399 150.761 74.8529 150.836 75.6371 150.896C77.3456 151.028 78.9163 151.096 80.3673 151.082C82.36 150.738 84.2818 149.925 86.1807 148.46C89.0646 146.235 91.8959 142.509 94.0345 137.449C95.739 133.415 97.0033 128.535 97.9223 124.247L97.1314 124.41C93.8919 125.085 87.4124 126.491 80.7995 127.267C74.1866 128.042 67.44 128.187 62.2058 127.374C56.9713 126.561 53.2499 124.79 51.1294 123.781C50.6553 123.556 50.2614 123.368 49.9324 123.233L49.9321 123.232Z" fill="white"/>
<path fill-rule="evenodd" clip-rule="evenodd" d="M59.1568 88.5317C59.1045 88.8262 59.0563 89.1366 59.0072 89.4593C58.9069 90.2769 58.7597 91.51 58.6089 92.5751C58.438 94.0989 58.0502 97.932 57.8989 99.4407C58.2241 99.469 58.5787 99.6812 60.0847 99.7435C68.9152 100.109 82.0477 98.45 89.1177 93.174C89.0888 92.9184 88.947 91.6198 88.9171 91.3846L88.9195 91.4049L88.7075 91.5149C86.0933 92.8523 83.1056 93.7195 79.7562 94.1655C76.4069 94.6113 72.696 94.6353 69.5449 93.9967C66.3935 93.3582 63.8013 92.0569 61.1029 90.069C60.4568 89.5931 59.8043 89.0775 59.1568 88.5317ZM88.9125 91.3477L88.9079 91.3108L88.9063 91.2994L88.903 91.2741L88.9079 91.3108L88.9095 91.3259L88.9125 91.3477ZM88.8982 91.238L88.8936 91.2015L88.896 91.2218L88.8982 91.238ZM88.8888 91.1657L88.8842 91.1298L88.8828 91.1193L88.8796 91.0942L88.8842 91.1298L88.886 91.1452L88.8888 91.1657ZM88.8653 90.9885L88.8604 90.9535L88.8626 90.9691L88.8653 90.9885ZM88.8558 90.9192L88.851 90.8847L88.8491 90.8707L88.8464 90.8505L88.851 90.8847L88.8523 90.8955L88.8558 90.9192ZM88.8413 90.8168L88.8367 90.7828L88.8386 90.7984L88.8413 90.8168ZM88.8173 90.6501L88.8127 90.6175L88.8149 90.6331L88.8173 90.6501ZM88.8079 90.5854L88.803 90.553L88.8046 90.5644L88.8079 90.5854ZM88.7933 90.4894L88.7884 90.4578L88.7909 90.4738L88.7933 90.4894ZM88.7836 90.4268L88.779 90.3956L88.7771 90.385L88.7742 90.3648L88.779 90.3953L88.7806 90.4069L88.7836 90.4266V90.4268ZM88.769 90.3346L88.7642 90.3047L88.7666 90.3203L88.769 90.3349V90.3346ZM88.7593 90.2745L88.7547 90.2448L88.7531 90.2354L88.7499 90.2154L88.7547 90.2448L88.7564 90.2564L88.7593 90.2748V90.2745ZM88.7447 90.186L88.7399 90.1572L88.7423 90.1728L88.7447 90.1863V90.186ZM88.7351 90.1283L88.7302 90.1L88.7286 90.0914L88.7253 90.072L88.7302 90.1L88.7321 90.1116L88.7351 90.1286V90.1283Z" fill="black" fill-opacity="0.2"/>
</svg>
