<svg width="149" height="154" viewBox="0 0 149 154" fill="none" xmlns="http://www.w3.org/2000/svg">
<path fill-rule="evenodd" clip-rule="evenodd" d="M24.5683 153.139C49.3354 153.701 99.1905 153.701 124.038 153.581C148.886 153.46 148.725 153.219 147.922 150.249C147.119 147.278 145.674 141.578 142.583 137.524C139.492 133.47 134.756 131.061 125.865 126.536C116.973 122.01 103.926 115.367 96.3335 111.815C88.7402 108.264 86.6004 107.804 82.8253 107.575C79.0502 107.345 73.6394 107.345 68.1466 107.926C62.6535 108.507 57.0782 109.668 48.4702 113.34C39.8619 117.012 28.2207 123.194 21.0356 126.726C13.8504 130.259 11.1205 131.141 8.83275 133.108C6.54469 135.075 4.69812 138.126 3.37337 141.177C2.04862 144.227 1.24595 147.278 0.683979 149.365C0.122004 151.453 -0.199282 152.577 24.568 153.139L24.5683 153.139Z" fill="#0075D4"/>
<path fill-rule="evenodd" clip-rule="evenodd" d="M47.3875 116.126C48.8672 117.829 51.8269 121.192 56.5667 123.87C61.3061 126.549 67.8253 128.544 73.9235 128.936C80.0216 129.327 85.6991 128.115 90.1014 125.672C94.5036 123.23 97.6313 119.557 99.2897 117.441C100.948 115.325 101.137 114.767 101.105 114.426C101.072 114.085 100.818 113.961 99.4908 113.337C98.1636 112.712 95.7637 111.588 93.967 110.781C92.1703 109.975 90.977 109.487 90.1159 109.547C89.2547 109.608 88.7267 110.217 87.3279 111.085C85.929 111.953 83.6598 113.081 79.8675 113.645C76.0752 114.209 70.7597 114.209 67.1237 113.81C63.4872 113.412 61.5307 112.616 60.0865 111.961C58.6421 111.306 57.7103 110.793 57.1241 110.569C56.5376 110.344 56.2958 110.409 54.9112 110.92C53.5263 111.43 50.9981 112.386 49.4095 113.019C47.8206 113.653 47.1716 113.964 46.7444 114.13C46.3172 114.296 46.1121 114.316 46.0099 114.348C45.9075 114.38 45.9075 114.424 47.3875 116.127V116.126Z" fill="#0059B4"/>
<path fill-rule="evenodd" clip-rule="evenodd" d="M61.1772 93.2756C59.97 93.1443 59.9209 93.4039 59.2781 96.8366C58.635 100.269 57.3973 106.875 56.7787 110.278C56.1599 113.681 56.1599 113.882 57.4092 115.126C58.6584 116.37 61.1573 118.658 64.9404 119.943C68.7233 121.228 73.7905 121.509 78.1074 121.007C82.4239 120.505 85.9906 119.221 88.0949 117.655C90.1991 116.089 90.8411 114.243 91.1621 113.199C91.4834 112.156 91.4834 111.915 90.8797 108.724C90.2759 105.532 89.069 99.3907 88.4652 96.3199C87.8615 93.2491 87.8614 93.2492 86.0941 93.6103C84.3265 93.9715 80.7914 94.6941 77.3338 94.8949C73.8762 95.0957 70.496 94.7744 67.6231 94.3523C64.7499 93.9305 62.3842 93.4071 61.1769 93.2756H61.1772Z" fill="#FFB8A2"/>
<path fill-rule="evenodd" clip-rule="evenodd" d="M39.1575 51.3704C37.3136 44.5499 36.4516 35.4801 36.581 28.697C36.7104 21.9143 37.8306 17.4182 42.4838 13.0027C47.1373 8.58722 55.3238 4.25181 62.9497 2.00418C70.5755 -0.243993 77.6419 -0.404368 82.8123 0.558941C87.9822 1.52225 91.257 3.60952 92.9376 6.53987C94.6175 9.46996 94.7038 13.2437 96.0827 15.2107C97.4616 17.1775 100.133 17.3381 103.192 17.619C106.251 17.9001 109.698 18.3012 111.981 20.1076C114.265 21.9137 115.385 25.1252 115.471 29.4606C115.557 33.7958 114.609 39.2552 113.835 45.0814C113.06 50.9076 112.459 57.1012 108.722 60.287C104.984 63.4729 98.1104 63.6511 95.1307 61.1865C92.1511 58.7219 93.0658 53.6142 93.0774 50.4014C93.0885 47.1886 92.1963 45.8703 90.0983 44.4253C88 42.9801 84.6952 41.4079 80.9676 40.1856C77.2397 38.9633 73.0889 38.0902 69.4192 38.1005C65.7498 38.1105 62.5612 39.0037 59.5883 39.0037C56.6154 39.0037 53.8578 38.1107 53.3691 39.5516C52.8797 40.9926 54.6588 44.7676 55.2124 47.3115C55.7658 49.8553 55.0936 51.1679 53.4632 54.2996C51.8322 57.4311 49.2431 62.3816 46.5357 62.5713C43.8279 62.7611 41.0014 58.1901 39.1575 51.3695V51.3704Z" fill="#331730"/>
<path fill-rule="evenodd" clip-rule="evenodd" d="M50.5139 37.8871C50.3331 39.9878 50.3733 43.6273 50.1018 47.2086C49.8301 50.7899 49.2466 54.3124 48.1426 56.4665C47.0389 58.6203 45.4141 59.4052 44.3993 58.9351C43.3843 58.4648 42.9789 56.7392 42.3646 54.5854C41.7501 52.4316 40.9272 49.8492 39.9857 48.5581C39.0445 47.267 37.985 47.267 36.7128 48.3244C35.4406 49.3818 33.9555 51.4966 34.2927 55.2514C34.6296 59.0063 36.7891 64.4018 38.716 68.148C40.6426 71.894 42.3369 73.9912 43.956 74.7709C45.5748 75.5507 47.1192 75.0127 47.8911 75.0728C48.6631 75.1332 48.6631 75.7917 49.6574 77.9024C50.6514 80.0131 52.6398 83.5766 54.6373 86.5668C56.6348 89.5572 58.642 91.9752 61.251 93.8463C63.8601 95.7174 67.0716 97.0419 70.5283 97.8448C73.9851 98.6478 77.6877 98.9283 81.0415 98.5068C84.3952 98.0855 87.4008 96.9615 90.467 95.0454C93.5329 93.1293 96.66 90.4211 98.7346 87.27C100.809 84.1191 101.831 80.5249 102.875 78.3188C103.918 76.1124 104.984 75.2938 105.879 74.8844C106.774 74.475 107.5 74.475 109.071 73.1532C110.642 71.8317 113.059 69.1889 114.864 66.4068C116.669 63.6247 117.862 60.7041 117.862 58.0284C117.862 55.353 116.668 52.9229 115.468 51.1704C114.267 49.4177 113.059 48.3422 111.851 47.8045C110.642 47.2668 109.434 47.2668 108.83 47.5344C108.226 47.8021 108.226 48.3371 108.432 50.1298C108.637 51.9224 109.049 54.9722 108.505 57.1527C107.962 59.3329 106.463 60.6437 104.713 61.0048C102.961 61.366 100.958 60.7782 100.035 58.3303C99.1117 55.8824 99.2686 51.5744 99.4678 48.0223C99.6667 44.4698 99.9074 41.6734 98.643 39.6331C97.3783 37.5922 94.6086 36.3079 91.0602 35.5052C87.5116 34.7023 83.1845 34.3813 77.6448 34.2206C72.1054 34.06 65.3539 34.06 60.7936 34.1605C56.2334 34.2608 53.865 34.4616 52.4805 34.843C51.0953 35.2241 50.6943 35.786 50.5137 37.8868L50.5139 37.8871Z" fill="#FFB8A2"/>
<path fill-rule="evenodd" clip-rule="evenodd" d="M56.5204 50.0676C56.171 49.5015 56.2915 48.249 57.1346 47.1531C57.9777 46.0572 59.5429 45.1181 61.3854 44.5521C63.2279 43.9861 65.3473 43.7931 66.6842 44.4799C68.021 45.1664 68.5746 46.7318 68.0089 47.8035C67.4429 48.8751 65.757 49.4533 63.9869 49.8026C62.2167 50.1516 60.362 50.2721 59.0251 50.3923C57.6882 50.5128 56.8697 50.6333 56.5204 50.0673V50.0676Z" fill="#331730"/>
<path fill-rule="evenodd" clip-rule="evenodd" d="M96.1697 50.0676C96.519 49.5015 96.3985 48.249 95.5554 47.1531C94.7123 46.0572 93.1472 45.1181 91.3046 44.5521C89.4621 43.9861 87.3428 43.7931 86.0059 44.4799C84.669 45.1664 84.1154 46.7318 84.6811 47.8035C85.2472 48.8751 86.9331 49.4533 88.7031 49.8026C90.4734 50.1516 92.3281 50.2721 93.6649 50.3923C95.0018 50.5128 95.8204 50.6333 96.1697 50.0673V50.0676Z" fill="#331730"/>
<path d="M64.2056 62.1713C65.2679 62.1713 66.129 60.2304 66.129 57.8361C66.129 55.4419 65.2679 53.501 64.2056 53.501C63.1434 53.501 62.2822 55.4419 62.2822 57.8361C62.2822 60.2304 63.1434 62.1713 64.2056 62.1713Z" fill="#331730"/>
<path d="M87.7603 62.1713C88.8226 62.1713 89.6837 60.2304 89.6837 57.8361C89.6837 55.4419 88.8226 53.501 87.7603 53.501C86.6981 53.501 85.8369 55.4419 85.8369 57.8361C85.8369 60.2304 86.6981 62.1713 87.7603 62.1713Z" fill="#331730"/>
<path d="M56.1603 69.7977C60.3004 69.7977 63.6565 68.342 63.6565 66.5463C63.6565 64.7506 60.3004 63.2949 56.1603 63.2949C52.0202 63.2949 48.6641 64.7506 48.6641 66.5463C48.6641 68.342 52.0202 69.7977 56.1603 69.7977Z" fill="#E99684"/>
<path d="M95.3576 69.7977C99.4976 69.7977 102.854 68.342 102.854 66.5463C102.854 64.7506 99.4976 63.2949 95.3576 63.2949C91.2175 63.2949 87.8613 64.7506 87.8613 66.5463C87.8613 68.342 91.2175 69.7977 95.3576 69.7977Z" fill="#E99684"/>
<path fill-rule="evenodd" clip-rule="evenodd" d="M75.8409 61.3572C75.881 62.9329 75.6242 66.3654 75.3951 68.503C75.1662 70.6404 74.9654 71.4827 74.9053 72.0743C74.8449 72.6662 74.9253 73.0075 75.5975 73.0678C76.2697 73.1279 77.5346 72.9069 78.247 72.9872C78.9593 73.0676 79.12 73.4489 78.3475 73.8104C77.5748 74.1713 75.8686 74.5128 74.7549 74.4726C73.6409 74.4325 73.1191 74.0109 73.1994 72.0846C73.2798 70.1582 73.9619 66.7265 74.3835 64.5191C74.8048 62.3113 74.9654 61.3273 75.2145 60.6947C75.4632 60.0621 75.8004 59.7812 75.8406 61.3572H75.8409Z" fill="#E99684"/>
<path fill-rule="evenodd" clip-rule="evenodd" d="M68.308 80.5834C69.2837 80.6936 70.9098 81.2359 72.7764 81.4666C74.6426 81.6974 76.75 81.6171 78.6465 81.2459C80.5432 80.8745 82.2294 80.212 83.3867 79.6198C84.5438 79.0277 85.1719 78.5058 85.5937 78.3956C86.0149 78.2851 86.2298 78.5862 85.9055 79.1783C85.5813 79.7705 84.7182 80.6535 83.4539 81.3963C82.1892 82.1389 80.5235 82.7407 78.7459 83.072C76.9681 83.4032 75.0792 83.4633 73.3534 83.3531C71.6273 83.2429 70.0643 82.9617 68.9797 82.5604C67.8948 82.1591 67.2876 81.637 67.1474 81.2157C67.0067 80.7942 67.3329 80.4732 68.3086 80.5834H68.308Z" fill="#E99684"/>
<path fill-rule="evenodd" clip-rule="evenodd" d="M74.0959 87.3024C74.5776 87.3024 75.9652 87.3024 77.0605 87.2148C78.1556 87.127 78.9583 86.951 79.4901 86.803C80.0221 86.655 80.2828 86.5345 80.4636 86.5747C80.6442 86.6149 80.7448 86.8156 80.3232 87.0766C79.9017 87.3375 78.958 87.6585 77.8944 87.7062C76.8309 87.7536 75.6463 87.528 74.8425 87.4154C74.0383 87.3024 73.6143 87.3024 74.0959 87.3024Z" fill="#FBA397"/>
<path fill-rule="evenodd" clip-rule="evenodd" d="M108.267 61.8674C108.097 61.4749 108.457 59.655 109.461 58.0228C110.465 56.3902 112.11 54.9452 113.265 54.2229C114.419 53.5003 115.081 53.5003 115.342 53.8029C115.603 54.1054 115.463 54.7105 115.101 55.0832C114.74 55.456 114.158 55.5964 113.345 56.1684C112.532 56.7406 111.488 57.7438 111.338 58.336C111.187 58.9281 111.93 59.1087 112.632 59.2292C113.335 59.3497 113.997 59.4098 114.158 59.7709C114.318 60.1321 113.977 60.7946 113.345 61.0558C112.712 61.3167 111.789 61.176 111.157 60.9652C110.525 60.7542 110.184 60.4723 109.662 60.8488C109.14 61.2253 108.438 62.2598 108.267 61.8674Z" fill="#E99684"/>
<path fill-rule="evenodd" clip-rule="evenodd" d="M42.5334 61.8674C42.704 61.4749 42.3431 59.655 41.3393 58.0228C40.3359 56.3902 38.6901 54.9452 37.5357 54.2229C36.3816 53.5003 35.7193 53.5003 35.4584 53.8029C35.1975 54.1054 35.3379 54.7105 35.6994 55.0832C36.0606 55.456 36.643 55.5964 37.4556 56.1684C38.2686 56.7406 39.3122 57.7438 39.4626 58.336C39.6133 58.9281 38.8704 59.1087 38.1683 59.2292C37.4659 59.3497 36.8034 59.4098 36.6427 59.7709C36.4824 60.1321 36.8236 60.7946 37.4556 61.0558C38.0882 61.3167 39.0111 61.176 39.6435 60.9652C40.2758 60.7542 40.617 60.4723 41.1385 60.8488C41.6604 61.2253 42.363 62.2598 42.5334 61.8674Z" fill="#E99684"/>
<path fill-rule="evenodd" clip-rule="evenodd" d="M59.6719 102.827C61.0034 102.964 63.6909 103.015 67.4085 102.88C71.1257 102.744 75.8732 102.421 79.4157 101.694C82.9581 100.966 85.2961 99.834 86.6036 98.8712C87.9111 97.9084 88.1887 97.1144 88.1981 96.7589C88.2075 96.4034 87.9499 96.4861 86.8243 96.8349C85.6987 97.1837 83.7056 97.7982 81.7167 98.1416C79.7278 98.4855 77.7432 98.558 75.3452 98.3095C72.9469 98.061 70.1349 97.4917 67.536 96.554C64.9369 95.6169 62.5502 94.3118 61.3314 93.7611C60.1123 93.2108 60.0611 93.4151 59.953 93.8452C59.8449 94.2754 59.68 94.9312 59.439 96.1036C59.1978 97.2764 58.8805 98.9655 58.6929 100.075C58.5051 101.185 58.4468 101.715 58.4056 102.091C58.3644 102.467 58.3398 102.69 59.6716 102.827L59.6719 102.827Z" fill="black" fill-opacity="0.2"/>
</svg>
